<svg width="219" height="55" viewBox="0 0 219 55" fill="none" xmlns="http://www.w3.org/2000/svg">
<g clip-path="url(#clip0_7_145)">
<path d="M186.831 52.054C188.998 51.6855 191.189 51.4217 193.325 50.9233C196.265 50.2371 199.075 49.1576 201.769 47.7854C206.112 45.5732 209.836 42.6509 212.654 38.6827C213.835 37.0203 214.719 35.2149 215.439 33.299C216.617 30.1641 216.618 26.9527 216.243 23.736C216.081 22.3524 215.475 21.0069 214.982 19.6758C214.199 17.5595 212.927 15.7173 211.516 13.9598C209.933 11.9883 208.017 10.3868 205.988 8.87994C203.015 6.6728 199.683 5.17025 196.2 4.01151C193.775 3.20485 191.284 2.55351 188.704 2.34366C187.607 2.25444 186.517 2.09353 185.311 1.92178C184.826 1.85782 184.452 1.81937 184.078 1.81932C150.518 1.81441 116.957 1.81218 83.3961 1.81183C82.5975 1.81182 81.799 1.83497 81.0004 1.84731C81.2698 1.23845 81.5393 0.629582 81.9061 0.0602271C82.2842 0.112286 82.5649 0.135798 82.8456 0.135827C116.922 0.139425 150.997 0.141504 185.073 0.139086C185.324 0.139069 185.574 0.0761908 185.825 0.0426636C187.402 0.252421 188.991 0.401994 190.554 0.687533C192.408 1.02624 194.26 1.41225 196.075 1.9089C197.558 2.31427 199.005 2.86547 200.433 3.43571C202.822 4.3895 205.047 5.65776 207.188 7.06512C209.976 8.89785 212.342 11.1735 214.362 13.8028C215.689 15.5312 216.716 17.4151 217.579 19.4155C218.27 21.018 218.449 22.7218 218.9 24.458C218.864 25.4531 218.858 26.3518 218.841 27.2504C218.825 28.1255 218.905 29.0192 218.751 29.8712C218.476 31.3902 218.057 32.884 217.698 34.3883C216.902 36.5984 215.72 38.6128 214.286 40.4597C213.322 41.7014 212.191 42.8277 211.059 43.93C208.017 46.891 204.413 49.0394 200.49 50.632C198.341 51.504 196.098 52.1725 193.857 52.7914C192.302 53.2208 190.679 53.4093 188.957 53.6921C187.545 53.7726 186.264 53.9437 184.982 53.9477C176.868 53.9734 168.753 53.9609 160.639 53.9678C160.367 53.9681 160.096 54.0416 159.825 54.0809C159.764 54.0863 159.703 54.0916 159.551 54.0521C159.274 53.9921 159.088 53.9636 158.902 53.9636C139.01 53.9616 119.119 53.9613 99.2267 53.9666C99.0026 53.9667 98.7786 54.0417 98.5546 54.0818C98.4933 54.0868 98.4321 54.0918 98.2801 54.0514C95.7732 53.9948 93.357 53.9837 90.8748 53.9688C80.9334 53.9638 71.058 53.9618 61.1826 53.9661C60.9338 53.9663 60.6849 54.0374 60.4361 54.0754C60.3778 54.058 60.3195 54.0406 60.2613 54.0232C60.7574 53.4356 61.2536 52.8481 61.8678 52.2704C66.117 52.2845 70.2483 52.2899 74.3796 52.2881C74.5323 52.288 74.6851 52.2166 74.8378 52.1785C75.772 52.1828 76.7062 52.193 77.6404 52.1902C78.9206 52.1863 80.2008 52.1727 81.5921 52.2109C83.6497 52.2703 85.5963 52.2846 87.5429 52.2892C87.6968 52.2895 87.8509 52.2226 88.0049 52.1869C89.5463 52.1795 91.0877 52.1721 92.7403 52.212C94.5103 52.2701 96.1691 52.2857 97.8278 52.2869C98.074 52.2871 98.3202 52.2194 98.5664 52.1831C100.221 52.1764 101.876 52.1696 103.64 52.2082C105.59 52.2669 107.431 52.2831 109.272 52.2889C109.425 52.2894 109.577 52.2205 109.73 52.1839C111.131 52.1771 112.531 52.1704 114.043 52.2129C116.315 52.2716 118.475 52.2824 120.635 52.2862C120.718 52.2864 120.802 52.2195 120.885 52.1839C122.425 52.1772 123.965 52.1704 125.617 52.2119C128.955 52.2708 132.181 52.2826 135.407 52.2876C135.514 52.2878 135.621 52.2198 135.728 52.1836C136.04 52.1783 136.352 52.173 136.771 52.2145C138.594 52.2713 140.31 52.2858 142.026 52.2863C142.275 52.2864 142.523 52.22 142.771 52.1843C142.92 52.1772 143.069 52.1702 143.317 52.2071C144.136 52.2648 144.857 52.2983 145.577 52.2867C146.29 52.2752 147.002 52.2181 147.714 52.181C147.764 52.1782 147.815 52.1754 147.951 52.2176C149.741 52.2724 151.446 52.286 153.15 52.2869C153.349 52.287 153.549 52.217 153.748 52.1795C155.262 52.1779 156.776 52.1763 158.4 52.2161C160.613 52.2689 162.717 52.2816 164.82 52.2872C164.902 52.2874 164.985 52.2191 165.067 52.1827C166.469 52.1763 167.871 52.1699 169.385 52.2121C171.437 52.2721 173.377 52.2853 175.318 52.2899C175.424 52.2901 175.53 52.2185 175.636 52.1804C177.234 52.178 178.832 52.1756 180.541 52.2184C182.448 52.2672 184.244 52.2798 186.039 52.2645C186.304 52.2623 186.567 52.1274 186.831 52.054Z" fill="#FB9C0D"/>
<path d="M3.78012 39.1514C3.09118 37.925 2.36972 36.768 1.79513 35.5441C1.31827 34.5284 0.974741 33.4458 0.641592 32.3719C-0.191335 29.687 -0.0222705 26.9192 0.109748 24.1763C0.158475 23.1639 0.550651 22.1547 0.872401 21.1715C1.20681 20.1496 1.56908 19.1229 2.05687 18.1666C2.74512 16.8172 3.46765 15.4673 4.33927 14.2296C6.36843 11.3482 8.9408 8.97427 11.892 7.03103C15.0024 4.98298 18.3163 3.31074 21.9264 2.27253C23.6727 1.77031 25.4089 1.17959 27.1928 0.87197C29.5466 0.466082 31.9417 0.0772201 34.3209 0.0653186C49.329 -0.00975186 64.3376 0.0215572 79.3461 0.0186283C79.485 0.0186012 79.624 0.0307899 79.899 0.0436253C79.6105 0.632832 79.3861 1.18734 79.0677 1.68321C78.9717 1.83262 78.6146 1.87182 78.3768 1.8725C72.449 1.88927 66.5212 1.89762 60.5934 1.90015C53.419 1.90321 46.2446 1.89827 39.0703 1.89987C37.5885 1.9002 36.1068 1.91288 34.625 1.922C31.8652 1.93899 29.1707 2.41196 26.4812 2.98276C23.6249 3.58899 20.8778 4.51648 18.2617 5.75729C14.1371 7.71355 10.41 10.2629 7.54165 13.8257C6.27614 15.3976 5.12257 17.1164 4.25322 18.9249C2.854 21.8356 2.24386 24.9744 2.54448 28.2168C2.67785 29.6553 2.82999 31.1209 3.2356 32.4994C3.83766 34.5456 4.77349 36.4634 5.99478 38.2575C8.23262 41.5449 11.1206 44.1393 14.4641 46.2676C17.2966 48.0705 20.3661 49.3757 23.5819 50.3699C28.384 51.8545 33.3046 52.2991 38.3161 52.2467C45.2075 52.1746 52.1001 52.2278 58.9922 52.2292C59.1259 52.2292 59.2596 52.2531 59.513 52.2774C59.0196 52.8698 58.6166 53.4053 58.1514 53.8819C58.0031 54.0338 57.6896 54.0871 57.4515 54.0875C52.0176 54.0964 46.5838 54.0918 41.1499 54.0893C39.4092 54.0885 37.6621 54.1798 35.9293 54.0642C33.0273 53.8705 30.0972 53.7447 27.2459 53.2298C22.2598 52.3294 17.573 50.5491 13.2283 47.9129C10.0092 45.9597 7.2545 43.5198 4.87705 40.6459C4.49432 40.1833 4.16512 39.6776 3.78012 39.1514Z" fill="#0F1212"/>
<path d="M48.5384 37.7482C46.6144 36.5616 45.4281 34.8751 44.8071 32.8174C43.9199 29.878 43.816 26.8826 44.5585 23.9066C45.5802 19.8116 48.2556 17.2335 52.3772 16.2009C55.5025 15.4178 58.6672 15.4743 61.7751 16.3477C65.1624 17.2996 67.3282 19.4976 68.2339 22.8559C69.0533 25.894 69.0567 28.9537 68.1587 31.9659C67.1418 35.377 64.862 37.699 61.4196 38.7591C57.7859 39.8781 54.1114 39.8142 50.4824 38.6525C49.8219 38.4411 49.2128 38.0736 48.5384 37.7482ZM51.0685 33.3572C52.1468 34.8673 53.7242 35.4123 55.4963 35.5553C59.2091 35.8548 62.1926 34.395 62.9261 30.3272C63.1861 28.8853 63.2133 27.3685 63.1044 25.9034C62.8851 22.9528 61.8635 20.0439 57.3888 19.659C53.7889 19.3493 50.9397 20.8331 50.0562 24.4397C49.662 26.0494 49.6247 27.69 49.8013 29.3392C49.9503 30.7306 50.2183 32.0782 51.0685 33.3572Z" fill="#090B0B"/>
<path d="M29.7649 34.5578C28.6864 37.0124 26.6006 38.0912 24.1885 38.6287C22.895 38.9169 21.5428 39.0244 20.2127 39.0623C17.8153 39.1307 15.4146 39.0929 13.0154 39.0845C11.7753 39.0802 11.3265 38.6203 11.3262 37.3976C11.325 30.8157 11.3249 24.2339 11.3264 17.652C11.3266 16.4691 11.7922 15.9964 12.9703 15.9946C15.4872 15.991 18.0077 15.9167 20.5196 16.0276C21.9562 16.091 23.4245 16.3137 24.7979 16.7257C27.2397 17.4582 28.5588 19.2035 28.6703 21.4679C28.7849 23.7937 27.744 25.3694 25.2349 26.5555C27.0912 27.0217 28.6493 27.8049 29.5541 29.4762C30.441 31.1143 30.3983 32.8009 29.7649 34.5578ZM20.6401 28.9758C19.2864 28.9758 17.9327 28.9758 16.5912 28.9758C16.5912 31.1599 16.5912 33.3011 16.5912 35.332C18.3486 35.332 20.0677 35.4291 21.77 35.3047C23.4782 35.1799 24.582 33.9752 24.6762 32.4363C24.7722 30.8675 23.8341 29.6547 22.1532 29.2196C21.7023 29.1029 21.2297 29.0676 20.6401 28.9758ZM18.4527 25.451C19.2251 25.4077 20.0045 25.4137 20.7687 25.3107C22.2345 25.113 23.2539 24.0022 23.3262 22.6102C23.4073 21.048 22.655 19.9412 21.047 19.6864C19.5835 19.4546 18.0766 19.4883 16.5878 19.4049C16.5878 21.5126 16.5878 23.4672 16.5878 25.451C17.1904 25.451 17.7515 25.451 18.4527 25.451Z" fill="#080A0A"/>
<path d="M205.742 20.2926C206.628 23.7583 205.606 26.8602 201.09 28.3566C202.418 28.9737 203.369 29.9002 203.977 31.0903C205.096 33.2788 206.159 35.4966 207.187 37.7281C207.661 38.7581 207.452 39.0963 206.311 39.159C205.119 39.2245 203.918 39.1617 202.721 39.1346C202.167 39.122 201.843 38.8026 201.624 38.3047C200.848 36.5439 200.052 34.7915 199.247 33.0436C199.015 32.539 198.741 32.0503 198.457 31.5714C197.678 30.2602 196.519 29.5978 194.965 29.6266C194.475 29.6357 193.984 29.628 193.39 29.628C193.39 29.9157 193.39 30.1591 193.39 30.4025C193.39 32.9053 193.39 35.408 193.389 37.9108C193.389 38.8494 193.308 39.0279 192.332 39.0924C191.169 39.1693 189.993 39.1116 188.825 39.0661C188.312 39.0461 188.057 38.7449 188.058 38.1887C188.07 31.3061 188.063 24.4235 188.069 17.5408C188.07 16.5299 188.564 15.9966 189.566 16.0025C192.787 16.0217 196.01 16.0146 199.226 16.144C200.981 16.2146 202.701 16.7021 204.023 17.9084C204.721 18.5454 205.165 19.4539 205.742 20.2926ZM194.771 26.1462C195.335 26.1433 195.91 26.2062 196.461 26.1218C197.265 25.9988 198.096 25.872 198.836 25.5631C200.077 25.045 200.667 23.8939 200.548 22.5744C200.419 21.142 199.759 20.2944 198.385 19.9025C196.756 19.4381 195.09 19.6518 193.421 19.6232C193.421 21.8278 193.421 23.9499 193.421 26.1463C193.845 26.1463 194.239 26.1463 194.771 26.1462Z" fill="#FF9E0B"/>
<path d="M85.4357 29.2106C83.1095 29.2106 80.854 29.2106 78.4817 29.2106C78.4817 29.4862 78.4818 29.7276 78.4817 29.969C78.4817 32.6571 78.4661 35.3453 78.4926 38.0331C78.4991 38.6957 78.2549 39.0751 77.5897 39.0865C76.3738 39.1074 75.1561 39.1089 73.9412 39.0646C73.4006 39.0448 73.1471 38.7195 73.1484 38.1334C73.1637 31.112 73.1636 24.0905 73.1488 17.0691C73.1475 16.479 73.4151 16.1633 73.9521 16.1462C75.1904 16.1066 76.4315 16.107 77.6702 16.14C78.2625 16.1557 78.4971 16.5206 78.4913 17.1217C78.4681 19.5315 78.4813 21.9416 78.481 24.3516C78.4809 24.6007 78.481 24.8499 78.481 25.1354C81.735 25.1354 84.9252 25.1354 88.2109 25.1354C88.2109 24.8868 88.2109 24.64 88.2109 24.3932C88.2106 21.9832 88.231 19.5729 88.1968 17.1633C88.1872 16.4872 88.4447 16.134 89.1027 16.1242C90.3186 16.1061 91.536 16.1064 92.7509 16.1512C93.2587 16.1699 93.5034 16.4742 93.5022 17.035C93.4864 24.0796 93.4863 31.1243 93.5019 38.1689C93.5032 38.7238 93.2739 39.044 92.7608 39.0604C91.4992 39.1006 90.2349 39.1006 88.9729 39.0692C88.4099 39.0552 88.1957 38.7025 88.2004 38.1308C88.2227 35.4428 88.2103 32.7547 88.2103 30.0666C88.2103 29.8154 88.2104 29.5643 88.2104 29.2106C87.2701 29.2106 86.3882 29.2106 85.4357 29.2106Z" fill="#FF9E0A"/>
<path d="M100.354 39.2073C99.5361 39.2082 98.783 39.2306 98.0321 39.2001C96.8465 39.1519 96.5887 38.8015 97.0016 37.7086C97.828 35.5212 98.6939 33.3483 99.5493 31.1716C101.379 26.5165 103.221 21.8663 105.033 17.2046C105.296 16.5275 105.668 16.0588 106.432 16.0574C108.051 16.0547 109.67 16.0755 111.288 16.1038C111.869 16.1139 112.22 16.4308 112.432 16.9694C115.129 23.8214 117.837 30.6691 120.54 37.5189C120.616 37.712 120.679 37.9128 120.723 38.1154C120.873 38.8066 120.71 39.1198 119.995 39.1527C118.73 39.2111 117.46 39.1732 116.193 39.1572C115.605 39.1497 115.277 38.8266 115.082 38.2754C114.603 36.9227 114.092 35.5804 113.555 34.2494C113.477 34.0561 113.183 33.8209 112.987 33.8191C109.909 33.7921 106.83 33.8002 103.677 33.8002C103.188 35.1386 102.646 36.4634 102.227 37.8252C101.939 38.7643 101.407 39.2333 100.354 39.2073ZM110.454 25.6206C109.824 23.9354 109.194 22.2503 108.511 20.424C107.259 23.7624 106.069 26.9365 104.872 30.1289C107.334 30.1289 109.709 30.1289 112.148 30.1289C111.582 28.6155 111.04 27.1673 110.454 25.6206Z" fill="#FF9E0A"/>
<path d="M145.434 27.5371C145.434 24.038 145.448 20.6084 145.422 17.179C145.417 16.5094 145.668 16.143 146.326 16.1282C147.518 16.1012 148.712 16.1003 149.904 16.1321C150.531 16.1488 150.773 16.5164 150.768 17.1496C150.744 19.9765 150.758 22.8037 150.758 25.6307C150.758 25.853 150.758 26.0753 150.758 26.5092C151.782 25.1993 152.68 24.0549 153.574 22.9082C155.121 20.9245 156.681 18.9506 158.201 16.9475C158.599 16.4232 159.065 16.071 159.711 16.0645C160.882 16.0528 162.059 16.043 163.223 16.1489C164.104 16.229 164.345 16.7407 163.812 17.45C162.779 18.8249 161.665 20.1421 160.552 21.4566C159.092 23.1813 157.6 24.8802 156.077 26.6424C156.221 26.8512 156.354 27.0595 156.502 27.2572C158.86 30.4076 161.224 33.5532 163.572 36.7099C163.875 37.1174 164.122 37.5702 164.359 38.0203C164.626 38.5285 164.421 38.9868 163.891 39.0099C162.377 39.076 160.856 39.066 159.341 38.995C159.054 38.9815 158.728 38.5924 158.52 38.3062C156.096 34.975 153.691 31.6301 151.281 28.2893C151.151 28.1096 151.017 27.9332 150.758 27.5852C150.758 28.0326 150.758 28.275 150.758 28.5174C150.758 31.6458 150.759 34.7741 150.757 37.9024C150.757 38.8415 150.676 39.0192 149.705 39.0962C148.613 39.1829 147.506 39.131 146.408 39.0951C145.706 39.0721 145.411 38.7076 145.419 37.9646C145.453 34.5123 145.434 31.0594 145.434 27.5371Z" fill="#FF9E0B"/>
<path d="M173.975 35.4647C176.795 35.4647 179.547 35.4636 182.3 35.4655C183.111 35.466 183.347 35.6581 183.405 36.4681C183.447 37.0434 183.439 37.627 183.393 38.2022C183.347 38.7804 183.057 39.0989 182.385 39.0956C178.174 39.0747 173.963 39.0888 169.752 39.0818C168.487 39.0796 168.022 38.603 168.022 37.3428C168.02 30.8068 168.02 24.2708 168.022 17.7348C168.022 16.4496 168.491 15.9949 169.82 15.9941C173.96 15.9915 178.1 16.0058 182.241 15.981C182.934 15.9769 183.26 16.2512 183.29 16.8897C183.319 17.4869 183.325 18.0874 183.296 18.6844C183.264 19.355 182.908 19.6345 182.192 19.6261C179.51 19.5948 176.828 19.6136 174.146 19.6137C173.892 19.6137 173.638 19.6137 173.342 19.6137C173.342 21.5201 173.342 23.3649 173.342 25.3118C173.593 25.3118 173.839 25.3118 174.086 25.3118C176.297 25.3118 178.509 25.311 180.72 25.312C181.611 25.3124 181.755 25.4361 181.908 26.3178C181.928 26.4318 181.948 26.5462 181.959 26.6613C182.136 28.6335 181.864 28.9323 179.898 28.9323C177.736 28.9322 175.573 28.9322 173.354 28.9322C173.354 31.0902 173.354 33.2111 173.354 35.4155C173.516 35.4299 173.712 35.4473 173.975 35.4647Z" fill="#FF9D09"/>
<path d="M124.458 20.5067C126.327 17.7369 129.004 16.3529 132.21 15.8758C134.89 15.4769 137.511 15.7169 139.999 16.8482C141.52 17.5397 142.219 19.6677 141.448 21.1538C141.218 21.5971 140.864 21.6577 140.444 21.4322C139.991 21.1884 139.551 20.9198 139.096 20.6806C137.522 19.8542 135.841 19.4653 134.065 19.6433C131.405 19.9099 129.648 21.3725 128.789 23.8252C127.937 26.2587 127.938 28.751 128.693 31.205C129.51 33.8596 131.572 35.3306 134.407 35.4573C136.365 35.5448 138.177 35.0784 139.882 34.1534C140.17 33.9972 140.454 33.8251 140.759 33.712C141.189 33.553 141.568 33.6982 141.592 34.1613C141.64 35.0788 141.719 36.025 141.54 36.911C141.45 37.3544 140.884 37.8117 140.422 38.0563C137.917 39.38 135.197 39.7408 132.421 39.4C130.972 39.2222 129.502 38.8566 128.156 38.3052C125.759 37.3236 124.144 35.4766 123.309 33.0712C122.057 29.464 122.089 25.8408 123.526 22.2722C123.767 21.6739 124.124 21.1209 124.458 20.5067Z" fill="#FF9E0B"/>
<path d="M35.4351 16.0638C36.6186 16.0737 37.7434 16.0818 38.8662 16.1329C39.4533 16.1595 39.7 16.4843 39.6986 17.0968C39.6828 24.0967 39.6829 31.0968 39.6985 38.0967C39.6998 38.6969 39.4848 39.0603 38.8865 39.0748C37.6255 39.1052 36.3626 39.1047 35.1016 39.0726C34.5414 39.0584 34.3236 38.7226 34.3249 38.1435C34.341 31.1204 34.3462 24.0971 34.3204 17.074C34.3175 16.2752 34.7923 16.1711 35.4351 16.0638Z" fill="#080A0A"/>
<path d="M81.0509 1.93368C81.799 1.85059 82.5975 1.81182 83.3961 1.81183C116.957 1.81242 150.518 1.81614 184.078 1.82437C184.452 1.82446 184.826 1.88888 185.254 1.98185C183.616 2.04219 181.924 2.04494 180.231 2.04555C162.474 2.05185 144.718 2.06204 126.961 2.06258C111.885 2.06304 96.8095 2.05246 81.7339 2.04436C81.523 2.04425 81.3122 2.01288 81.0509 1.93368Z" fill="#A68C5F"/>
<path d="M185.758 0.0524296C185.574 0.136367 185.324 0.248867 185.073 0.248899C150.997 0.253226 116.922 0.249506 82.8456 0.243068C82.5649 0.243015 82.2842 0.200948 81.9576 0.11691C82.146 0.036143 82.3802 0.000167399 82.6145 0.000162671C116.55 -0.000565944 150.485 0.001223 184.421 0.00413049C184.844 0.00416657 185.267 0.0200117 185.758 0.0524296Z" fill="#C28625"/>
<path d="M98.6208 54.1782C98.7786 54.0923 99.0027 53.9695 99.2267 53.9694C119.119 53.9607 139.01 53.9612 158.902 53.9645C159.088 53.9645 159.274 54.0111 159.506 54.096C157.014 54.1744 154.476 54.2072 151.937 54.2082C138.113 54.2142 124.289 54.2133 110.465 54.2123C106.539 54.2121 102.613 54.2033 98.6208 54.1782Z" fill="#D08A1D"/>
<path d="M60.5024 54.1744C60.6849 54.0867 60.9337 53.9675 61.1826 53.9673C71.058 53.9599 80.9334 53.9634 90.8749 54.0173C90.9412 54.0691 90.9412 54.1605 90.9412 54.1605C87.8177 54.1796 84.6942 54.2133 81.5707 54.2147C74.57 54.2179 67.5693 54.2049 60.5024 54.1744Z" fill="#CF8B1E"/>
<path d="M159.891 54.0932C160.096 54.0416 160.367 53.9681 160.639 53.9679C168.753 53.9609 176.868 53.9734 184.982 53.9477C186.264 53.9437 187.545 53.7726 188.899 53.6829C187.739 53.8229 186.507 54.0712 185.274 54.0767C176.835 54.1148 168.396 54.1019 159.891 54.0932Z" fill="#CE8A20"/>
<path d="M74.7734 52.1823C74.6851 52.2681 74.5323 52.3968 74.3796 52.3969C70.2483 52.4003 66.117 52.3905 61.9212 52.3572C62.0594 52.2719 62.2622 52.1606 62.465 52.1603C66.5463 52.1543 70.6276 52.161 74.7734 52.1823Z" fill="#A49373"/>
<path d="M217.742 34.3549C218.057 32.884 218.476 31.3902 218.751 29.8712C218.905 29.0192 218.825 28.1255 218.842 27.2504C218.858 26.3518 218.864 25.4531 218.913 24.5092C218.958 26.2213 219.071 27.987 218.934 29.7335C218.842 30.9069 218.4 32.0543 218.106 33.2114C218.012 33.5845 217.893 33.9516 217.742 34.3549Z" fill="#BC8731"/>
<path d="M135.659 52.1842C135.621 52.2671 135.514 52.3897 135.407 52.3894C132.181 52.3803 128.955 52.3591 125.68 52.2716C128.951 52.1911 132.27 52.1788 135.659 52.1842Z" fill="#A59371"/>
<path d="M91.0066 54.1877C90.9412 54.1685 90.9411 54.0701 90.9409 54.0211C93.357 53.9922 95.7732 54.0123 98.2347 54.0977C95.8774 54.1777 93.4747 54.1923 91.0066 54.1877Z" fill="#D18B1D"/>
<path d="M120.818 52.1853C120.802 52.267 120.718 52.3875 120.635 52.3872C118.475 52.3804 116.315 52.361 114.106 52.275C116.289 52.1935 118.52 52.1806 120.818 52.1853Z" fill="#A4916F"/>
<path d="M165 52.185C164.985 52.2659 164.902 52.389 164.82 52.3886C162.717 52.3786 160.613 52.3557 158.466 52.2676C160.593 52.19 162.763 52.1798 165 52.185Z" fill="#A4916F"/>
<path d="M186.767 52.0489C186.567 52.1377 186.304 52.29 186.039 52.2926C184.244 52.3099 182.448 52.2956 180.605 52.248C182.607 52.1507 184.655 52.0969 186.767 52.0489Z" fill="#A78B5B"/>
<path d="M87.9367 52.1889C87.8509 52.2704 87.6968 52.3911 87.5429 52.3904C85.5963 52.3822 83.6497 52.3564 81.6567 52.2676C83.6964 52.1907 85.7825 52.1812 87.9367 52.1889Z" fill="#A3916E"/>
<path d="M175.57 52.1799C175.53 52.2647 175.424 52.3938 175.318 52.3933C173.377 52.3851 171.437 52.3614 169.449 52.2721C171.436 52.1901 173.471 52.177 175.57 52.1799Z" fill="#A3916E"/>
<path d="M109.663 52.1851C109.577 52.2679 109.425 52.3921 109.272 52.3912C107.431 52.3807 105.59 52.3516 103.707 52.2608C105.642 52.1856 107.619 52.1771 109.663 52.1851Z" fill="#A3916F"/>
<path d="M142.704 52.1856C142.523 52.2676 142.275 52.3875 142.027 52.3873C140.31 52.3863 138.594 52.3603 136.829 52.2748C138.731 52.1942 140.684 52.181 142.704 52.1856Z" fill="#A4916E"/>
<path d="M98.5007 52.1846C98.3202 52.2667 98.074 52.3887 97.8279 52.3884C96.1691 52.3863 94.5103 52.3582 92.8047 52.2705C94.6503 52.191 96.5426 52.1795 98.5007 52.1846Z" fill="#A3916F"/>
<path d="M153.684 52.18C153.549 52.2633 153.349 52.3896 153.15 52.3894C151.446 52.3877 149.741 52.3632 147.988 52.2772C149.833 52.1941 151.726 52.1792 153.684 52.18Z" fill="#A5926E"/>
<path d="M147.646 52.1806C147.002 52.2648 146.29 52.3677 145.577 52.3885C144.857 52.4095 144.136 52.3491 143.372 52.2577C144.746 52.1819 146.162 52.1726 147.646 52.1806Z" fill="#A69578"/>
</g>
<defs>
<clipPath id="clip0_7_145">
<rect width="219" height="55" fill="white"/>
</clipPath>
</defs>
</svg>
