<svg width="270" height="53" viewBox="0 0 270 53" fill="none" xmlns="http://www.w3.org/2000/svg">
<path fill-rule="evenodd" clip-rule="evenodd" d="M26 52.5C40.3594 52.5 52 40.8594 52 26.5C52 12.1406 40.3594 0.5 26 0.5C11.6406 0.5 0 12.1406 0 26.5C0 40.8594 11.6406 52.5 26 52.5ZM21.2334 38.4143C21.8658 38.4143 22.1547 38.133 22.504 37.7929L22.5334 37.7643L25.6548 34.7292L32.1538 39.5307C33.3494 40.1904 34.2124 39.8488 34.5102 38.4206L38.7753 18.322C39.212 16.5712 38.108 15.7772 36.9641 16.2965L11.9196 25.9536C10.2101 26.6392 10.2201 27.593 11.608 28.018L18.035 30.0239L32.9141 20.6368C33.6166 20.2109 34.2612 20.4399 33.7321 20.9095L21.6782 31.7872L21.6758 31.7858L21.2334 38.4143Z" fill="url(#paint0_linear_7_227)"/>
<path d="M82.736 18.9H75.76V38.5H71.456V18.9H64.48V15.364H82.736V18.9ZM91.8718 28.404C91.8718 27.892 91.7971 27.412 91.6478 26.964C91.5091 26.5053 91.2958 26.1053 91.0078 25.764C90.7198 25.4227 90.3518 25.156 89.9038 24.964C89.4664 24.7613 88.9544 24.66 88.3678 24.66C87.2264 24.66 86.3251 24.9853 85.6638 25.636C85.0131 26.2867 84.5971 27.2093 84.4158 28.404H91.8718ZM84.3358 30.788C84.3998 31.6307 84.5491 32.3613 84.7838 32.98C85.0184 33.588 85.3278 34.0947 85.7118 34.5C86.0958 34.8947 86.5491 35.1933 87.0718 35.396C87.6051 35.588 88.1918 35.684 88.8318 35.684C89.4718 35.684 90.0211 35.6093 90.4798 35.46C90.9491 35.3107 91.3544 35.1453 91.6958 34.964C92.0478 34.7827 92.3518 34.6173 92.6078 34.468C92.8744 34.3187 93.1304 34.244 93.3758 34.244C93.7064 34.244 93.9518 34.3667 94.1118 34.612L95.2478 36.052C94.8104 36.564 94.3198 36.996 93.7758 37.348C93.2318 37.6893 92.6611 37.9667 92.0638 38.18C91.4771 38.3827 90.8744 38.5267 90.2558 38.612C89.6478 38.6973 89.0558 38.74 88.4798 38.74C87.3384 38.74 86.2771 38.5533 85.2958 38.18C84.3144 37.796 83.4611 37.236 82.7358 36.5C82.0104 35.7533 81.4398 34.836 81.0238 33.748C80.6078 32.6493 80.3997 31.38 80.3997 29.94C80.3997 28.82 80.5811 27.7693 80.9438 26.788C81.3064 25.796 81.8238 24.9373 82.4958 24.212C83.1784 23.476 84.0051 22.8947 84.9758 22.468C85.9571 22.0413 87.0611 21.828 88.2878 21.828C89.3224 21.828 90.2771 21.9933 91.1518 22.324C92.0264 22.6547 92.7784 23.14 93.4078 23.78C94.0371 24.4093 94.5278 25.188 94.8798 26.116C95.2424 27.0333 95.4237 28.084 95.4237 29.268C95.4237 29.8653 95.3598 30.2707 95.2318 30.484C95.1038 30.6867 94.8584 30.788 94.4958 30.788H84.3358ZM102.39 14.724V38.5H98.4375V14.724H102.39ZM116.903 28.404C116.903 27.892 116.828 27.412 116.679 26.964C116.54 26.5053 116.327 26.1053 116.039 25.764C115.751 25.4227 115.383 25.156 114.935 24.964C114.498 24.7613 113.986 24.66 113.399 24.66C112.258 24.66 111.356 24.9853 110.695 25.636C110.044 26.2867 109.628 27.2093 109.447 28.404H116.903ZM109.367 30.788C109.431 31.6307 109.58 32.3613 109.815 32.98C110.05 33.588 110.359 34.0947 110.743 34.5C111.127 34.8947 111.58 35.1933 112.103 35.396C112.636 35.588 113.223 35.684 113.863 35.684C114.503 35.684 115.052 35.6093 115.511 35.46C115.98 35.3107 116.386 35.1453 116.727 34.964C117.079 34.7827 117.383 34.6173 117.639 34.468C117.906 34.3187 118.162 34.244 118.407 34.244C118.738 34.244 118.983 34.3667 119.143 34.612L120.279 36.052C119.842 36.564 119.351 36.996 118.807 37.348C118.263 37.6893 117.692 37.9667 117.095 38.18C116.508 38.3827 115.906 38.5267 115.287 38.612C114.679 38.6973 114.087 38.74 113.511 38.74C112.37 38.74 111.308 38.5533 110.327 38.18C109.346 37.796 108.492 37.236 107.767 36.5C107.042 35.7533 106.471 34.836 106.055 33.748C105.639 32.6493 105.431 31.38 105.431 29.94C105.431 28.82 105.612 27.7693 105.975 26.788C106.338 25.796 106.855 24.9373 107.527 24.212C108.21 23.476 109.036 22.8947 110.007 22.468C110.988 22.0413 112.092 21.828 113.319 21.828C114.354 21.828 115.308 21.9933 116.183 22.324C117.058 22.6547 117.81 23.14 118.439 23.78C119.068 24.4093 119.559 25.188 119.911 26.116C120.274 27.0333 120.455 28.084 120.455 29.268C120.455 29.8653 120.391 30.2707 120.263 30.484C120.135 30.6867 119.89 30.788 119.527 30.788H109.367ZM129.421 29.892C129.911 29.892 130.338 29.828 130.701 29.7C131.063 29.5613 131.362 29.3747 131.597 29.14C131.842 28.9053 132.023 28.6227 132.141 28.292C132.269 27.9613 132.333 27.5987 132.333 27.204C132.333 26.3933 132.087 25.7533 131.597 25.284C131.117 24.804 130.391 24.564 129.421 24.564C128.45 24.564 127.719 24.804 127.229 25.284C126.749 25.7533 126.509 26.3933 126.509 27.204C126.509 27.588 126.567 27.9453 126.685 28.276C126.813 28.6067 126.994 28.8947 127.229 29.14C127.474 29.3747 127.778 29.5613 128.141 29.7C128.514 29.828 128.941 29.892 129.421 29.892ZM133.885 39.236C133.885 38.916 133.789 38.6547 133.597 38.452C133.405 38.2493 133.143 38.0947 132.813 37.988C132.482 37.8707 132.093 37.7853 131.645 37.732C131.207 37.6787 130.738 37.6413 130.237 37.62C129.746 37.588 129.234 37.5613 128.701 37.54C128.178 37.5187 127.666 37.476 127.165 37.412C126.727 37.6573 126.37 37.9453 126.093 38.276C125.826 38.6067 125.693 38.9907 125.693 39.428C125.693 39.716 125.762 39.9827 125.901 40.228C126.05 40.484 126.279 40.7027 126.589 40.884C126.909 41.0653 127.319 41.204 127.821 41.3C128.322 41.4067 128.935 41.46 129.661 41.46C130.397 41.46 131.031 41.4013 131.565 41.284C132.098 41.1773 132.535 41.0227 132.877 40.82C133.229 40.628 133.485 40.3933 133.645 40.116C133.805 39.8493 133.885 39.556 133.885 39.236ZM137.821 22.644V24.116C137.821 24.5853 137.538 24.8733 136.973 24.98L135.501 25.252C135.725 25.8173 135.837 26.436 135.837 27.108C135.837 27.9187 135.671 28.6547 135.341 29.316C135.021 29.9667 134.573 30.5213 133.997 30.98C133.421 31.4387 132.738 31.796 131.949 32.052C131.17 32.2973 130.327 32.42 129.421 32.42C129.101 32.42 128.791 32.404 128.493 32.372C128.194 32.34 127.901 32.2973 127.613 32.244C127.101 32.5533 126.845 32.9 126.845 33.284C126.845 33.6147 126.994 33.86 127.293 34.02C127.602 34.1693 128.007 34.276 128.509 34.34C129.01 34.404 129.581 34.4467 130.221 34.468C130.861 34.4787 131.517 34.5107 132.189 34.564C132.861 34.6173 133.517 34.7133 134.157 34.852C134.797 34.98 135.367 35.188 135.869 35.476C136.37 35.764 136.77 36.1587 137.069 36.66C137.378 37.1507 137.533 37.7853 137.533 38.564C137.533 39.2893 137.351 39.9933 136.989 40.676C136.637 41.3587 136.119 41.9667 135.437 42.5C134.765 43.0333 133.933 43.46 132.941 43.78C131.959 44.1107 130.839 44.276 129.581 44.276C128.343 44.276 127.266 44.1533 126.349 43.908C125.431 43.6733 124.669 43.3533 124.061 42.948C123.453 42.5533 122.999 42.0947 122.701 41.572C122.402 41.0493 122.253 40.5053 122.253 39.94C122.253 39.172 122.482 38.532 122.941 38.02C123.41 37.4973 124.05 37.0813 124.861 36.772C124.423 36.548 124.077 36.2493 123.821 35.876C123.565 35.5027 123.437 35.012 123.437 34.404C123.437 34.1587 123.479 33.908 123.565 33.652C123.661 33.3853 123.794 33.124 123.965 32.868C124.146 32.612 124.37 32.372 124.637 32.148C124.903 31.9133 125.218 31.7053 125.581 31.524C124.749 31.076 124.093 30.4787 123.613 29.732C123.143 28.9853 122.909 28.1107 122.909 27.108C122.909 26.2973 123.069 25.5667 123.389 24.916C123.719 24.2547 124.173 23.6947 124.749 23.236C125.335 22.7667 126.023 22.4093 126.813 22.164C127.613 21.9187 128.482 21.796 129.421 21.796C130.125 21.796 130.786 21.8707 131.405 22.02C132.023 22.1587 132.589 22.3667 133.101 22.644H137.821ZM144.055 24.932C144.567 23.9507 145.175 23.1827 145.879 22.628C146.583 22.0627 147.415 21.78 148.375 21.78C149.132 21.78 149.74 21.9453 150.199 22.276L149.943 25.236C149.89 25.428 149.81 25.5667 149.703 25.652C149.607 25.7267 149.474 25.764 149.303 25.764C149.143 25.764 148.903 25.7373 148.583 25.684C148.274 25.6307 147.97 25.604 147.671 25.604C147.234 25.604 146.844 25.668 146.503 25.796C146.162 25.924 145.852 26.1107 145.575 26.356C145.308 26.5907 145.068 26.8787 144.855 27.22C144.652 27.5613 144.46 27.9507 144.279 28.388V38.5H140.327V22.084H142.647C143.052 22.084 143.335 22.1587 143.495 22.308C143.655 22.4467 143.762 22.7027 143.815 23.076L144.055 24.932ZM160.718 31.492C159.576 31.5453 158.616 31.6467 157.838 31.796C157.059 31.9347 156.435 32.116 155.966 32.34C155.496 32.564 155.16 32.8253 154.958 33.124C154.755 33.4227 154.654 33.748 154.654 34.1C154.654 34.7933 154.856 35.2893 155.262 35.588C155.678 35.8867 156.216 36.036 156.878 36.036C157.688 36.036 158.387 35.892 158.974 35.604C159.571 35.3053 160.152 34.8573 160.718 34.26V31.492ZM151.662 24.372C153.55 22.644 155.822 21.78 158.478 21.78C159.438 21.78 160.296 21.94 161.054 22.26C161.811 22.5693 162.451 23.0067 162.974 23.572C163.496 24.1267 163.891 24.7933 164.158 25.572C164.435 26.3507 164.574 27.204 164.574 28.132V38.5H162.782C162.408 38.5 162.12 38.4467 161.918 38.34C161.715 38.2227 161.555 37.9933 161.438 37.652L161.086 36.468C160.67 36.8413 160.264 37.172 159.87 37.46C159.475 37.7373 159.064 37.972 158.638 38.164C158.211 38.356 157.752 38.5 157.262 38.596C156.782 38.7027 156.248 38.756 155.662 38.756C154.968 38.756 154.328 38.6653 153.742 38.484C153.155 38.292 152.648 38.0093 152.222 37.636C151.795 37.2627 151.464 36.7987 151.23 36.244C150.995 35.6893 150.878 35.044 150.878 34.308C150.878 33.892 150.947 33.4813 151.086 33.076C151.224 32.66 151.448 32.2653 151.758 31.892C152.078 31.5187 152.488 31.1667 152.99 30.836C153.491 30.5053 154.104 30.2173 154.83 29.972C155.566 29.7267 156.419 29.5293 157.39 29.38C158.36 29.22 159.47 29.124 160.718 29.092V28.132C160.718 27.0333 160.483 26.2227 160.014 25.7C159.544 25.1667 158.867 24.9 157.982 24.9C157.342 24.9 156.808 24.9747 156.382 25.124C155.966 25.2733 155.598 25.444 155.278 25.636C154.958 25.8173 154.664 25.9827 154.398 26.132C154.142 26.2813 153.854 26.356 153.534 26.356C153.256 26.356 153.022 26.2867 152.83 26.148C152.638 25.9987 152.483 25.828 152.366 25.636L151.662 24.372ZM168.296 38.5V22.084H170.712C171.224 22.084 171.56 22.324 171.72 22.804L171.976 24.02C172.264 23.7 172.562 23.4067 172.872 23.14C173.192 22.8733 173.528 22.644 173.88 22.452C174.242 22.26 174.626 22.1107 175.032 22.004C175.448 21.8867 175.901 21.828 176.392 21.828C177.426 21.828 178.274 22.1107 178.936 22.676C179.608 23.2307 180.109 23.972 180.44 24.9C180.696 24.356 181.016 23.892 181.4 23.508C181.784 23.1133 182.205 22.7933 182.664 22.548C183.122 22.3027 183.608 22.1213 184.12 22.004C184.642 21.8867 185.165 21.828 185.688 21.828C186.594 21.828 187.4 21.9667 188.104 22.244C188.808 22.5213 189.4 22.9267 189.88 23.46C190.36 23.9933 190.722 24.644 190.968 25.412C191.224 26.18 191.352 27.06 191.352 28.052V38.5H187.4V28.052C187.4 27.0067 187.17 26.2227 186.712 25.7C186.253 25.1667 185.581 24.9 184.696 24.9C184.29 24.9 183.912 24.9693 183.56 25.108C183.218 25.2467 182.914 25.4493 182.648 25.716C182.392 25.972 182.189 26.2973 182.04 26.692C181.89 27.0867 181.816 27.54 181.816 28.052V38.5H177.848V28.052C177.848 26.9533 177.624 26.1533 177.176 25.652C176.738 25.1507 176.093 24.9 175.24 24.9C174.664 24.9 174.125 25.044 173.624 25.332C173.133 25.6093 172.674 25.9933 172.248 26.484V38.5H168.296ZM212.906 25.284C212.799 25.4547 212.687 25.5773 212.57 25.652C212.452 25.716 212.303 25.748 212.122 25.748C211.93 25.748 211.722 25.6947 211.498 25.588C211.284 25.4813 211.034 25.364 210.746 25.236C210.458 25.0973 210.127 24.9747 209.753 24.868C209.391 24.7613 208.959 24.708 208.458 24.708C207.679 24.708 207.066 24.8733 206.618 25.204C206.18 25.5347 205.962 25.9667 205.962 26.5C205.962 26.852 206.074 27.1507 206.298 27.396C206.532 27.6307 206.836 27.8387 207.21 28.02C207.594 28.2013 208.026 28.3667 208.506 28.516C208.986 28.6547 209.471 28.8093 209.962 28.98C210.463 29.1507 210.954 29.348 211.434 29.572C211.914 29.7853 212.34 30.0627 212.714 30.404C213.098 30.7347 213.402 31.1347 213.626 31.604C213.86 32.0733 213.978 32.6387 213.978 33.3C213.978 34.0893 213.834 34.82 213.546 35.492C213.268 36.1533 212.852 36.7293 212.298 37.22C211.743 37.7 211.055 38.0787 210.234 38.356C209.423 38.6227 208.484 38.756 207.418 38.756C206.852 38.756 206.298 38.7027 205.754 38.596C205.22 38.5 204.703 38.3613 204.202 38.18C203.711 37.9987 203.252 37.7853 202.826 37.54C202.41 37.2947 202.042 37.028 201.722 36.74L202.634 35.236C202.751 35.0547 202.89 34.916 203.049 34.82C203.209 34.724 203.412 34.676 203.658 34.676C203.903 34.676 204.132 34.7453 204.346 34.884C204.57 35.0227 204.826 35.172 205.114 35.332C205.402 35.492 205.738 35.6413 206.122 35.78C206.516 35.9187 207.012 35.988 207.61 35.988C208.079 35.988 208.479 35.9347 208.81 35.828C209.151 35.7107 209.428 35.5613 209.642 35.38C209.866 35.1987 210.025 34.9907 210.122 34.756C210.228 34.5107 210.282 34.26 210.282 34.004C210.282 33.62 210.164 33.3053 209.93 33.06C209.706 32.8147 209.402 32.6013 209.017 32.42C208.644 32.2387 208.212 32.0787 207.722 31.94C207.242 31.7907 206.746 31.6307 206.234 31.46C205.732 31.2893 205.236 31.092 204.746 30.868C204.266 30.6333 203.834 30.34 203.45 29.988C203.076 29.636 202.772 29.204 202.538 28.692C202.314 28.18 202.202 27.5613 202.202 26.836C202.202 26.164 202.335 25.524 202.602 24.916C202.868 24.308 203.258 23.78 203.77 23.332C204.292 22.8733 204.938 22.5107 205.706 22.244C206.484 21.9667 207.38 21.828 208.394 21.828C209.524 21.828 210.554 22.0147 211.482 22.388C212.41 22.7613 213.183 23.252 213.802 23.86L212.906 25.284ZM220.904 23.844C221.544 23.2467 222.248 22.7613 223.016 22.388C223.784 22.0147 224.685 21.828 225.72 21.828C226.616 21.828 227.411 21.9827 228.104 22.292C228.797 22.5907 229.373 23.0173 229.832 23.572C230.301 24.116 230.653 24.772 230.888 25.54C231.133 26.2973 231.256 27.1347 231.256 28.052V38.5H227.304V28.052C227.304 27.0493 227.075 26.276 226.616 25.732C226.157 25.1773 225.459 24.9 224.52 24.9C223.837 24.9 223.197 25.0547 222.6 25.364C222.003 25.6733 221.437 26.0947 220.904 26.628V38.5H216.952V14.724H220.904V23.844ZM242.279 21.828C243.495 21.828 244.599 22.0253 245.591 22.42C246.593 22.8147 247.447 23.3747 248.151 24.1C248.865 24.8253 249.414 25.7107 249.799 26.756C250.183 27.8013 250.375 28.9693 250.375 30.26C250.375 31.5613 250.183 32.7347 249.799 33.78C249.414 34.8253 248.865 35.716 248.151 36.452C247.447 37.188 246.593 37.7533 245.591 38.148C244.599 38.5427 243.495 38.74 242.279 38.74C241.052 38.74 239.937 38.5427 238.935 38.148C237.932 37.7533 237.073 37.188 236.359 36.452C235.655 35.716 235.105 34.8253 234.711 33.78C234.327 32.7347 234.135 31.5613 234.135 30.26C234.135 28.9693 234.327 27.8013 234.711 26.756C235.105 25.7107 235.655 24.8253 236.359 24.1C237.073 23.3747 237.932 22.8147 238.935 22.42C239.937 22.0253 241.052 21.828 242.279 21.828ZM242.279 35.7C243.644 35.7 244.652 35.2413 245.303 34.324C245.964 33.4067 246.295 32.0627 246.295 30.292C246.295 28.5213 245.964 27.172 245.303 26.244C244.652 25.316 243.644 24.852 242.279 24.852C240.892 24.852 239.863 25.3213 239.191 26.26C238.529 27.188 238.199 28.532 238.199 30.292C238.199 32.052 238.529 33.396 239.191 34.324C239.863 35.2413 240.892 35.7 242.279 35.7ZM257.342 34.244C257.79 34.788 258.275 35.172 258.798 35.396C259.331 35.62 259.907 35.732 260.526 35.732C261.123 35.732 261.662 35.62 262.142 35.396C262.622 35.172 263.027 34.8307 263.358 34.372C263.699 33.9133 263.96 33.3373 264.142 32.644C264.323 31.94 264.414 31.1133 264.414 30.164C264.414 29.204 264.334 28.3933 264.174 27.732C264.024 27.06 263.806 26.516 263.518 26.1C263.23 25.684 262.878 25.38 262.462 25.188C262.056 24.996 261.592 24.9 261.07 24.9C260.248 24.9 259.55 25.076 258.974 25.428C258.398 25.7693 257.854 26.2547 257.342 26.884V34.244ZM257.134 24.324C257.806 23.5667 258.568 22.9533 259.422 22.484C260.275 22.0147 261.278 21.78 262.43 21.78C263.326 21.78 264.142 21.9667 264.878 22.34C265.624 22.7133 266.264 23.2573 266.798 23.972C267.342 24.676 267.758 25.5507 268.046 26.596C268.344 27.6307 268.494 28.82 268.494 30.164C268.494 31.3907 268.328 32.5267 267.998 33.572C267.667 34.6173 267.192 35.524 266.574 36.292C265.966 37.06 265.224 37.6627 264.35 38.1C263.486 38.5267 262.515 38.74 261.438 38.74C260.52 38.74 259.736 38.6013 259.086 38.324C258.435 38.036 257.854 37.6413 257.342 37.14V43.86H253.39V22.084H255.806C256.318 22.084 256.654 22.324 256.814 22.804L257.134 24.324Z" fill="url(#paint1_linear_7_227)"/>
<defs>
<linearGradient id="paint0_linear_7_227" x1="26" y1="0.5" x2="26" y2="52.5" gradientUnits="userSpaceOnUse">
<stop stop-color="#36ACE9"/>
<stop offset="1" stop-color="#299DD5"/>
</linearGradient>
<linearGradient id="paint1_linear_7_227" x1="167" y1="7.5" x2="167" y2="45.5" gradientUnits="userSpaceOnUse">
<stop stop-color="#36ACE9"/>
<stop offset="1" stop-color="#299DD5"/>
</linearGradient>
</defs>
</svg>
