<svg width="149" height="40" viewBox="0 0 149 40" fill="none" xmlns="http://www.w3.org/2000/svg">
<path fill-rule="evenodd" clip-rule="evenodd" d="M20 40C31.0457 40 40 31.0457 40 20C40 8.95431 31.0457 0 20 0C8.95431 0 0 8.95431 0 20C0 31.0457 8.95431 40 20 40ZM16.3334 29.1648C16.8198 29.1648 17.0421 28.9484 17.3108 28.6868L17.3334 28.6648L19.7344 26.3301L24.7337 30.0236C25.6534 30.5311 26.3172 30.2683 26.5463 29.1697L29.8272 13.7092C30.1631 12.3625 29.3138 11.7517 28.4339 12.1512L9.16894 19.5797C7.85392 20.1071 7.86159 20.8408 8.92924 21.1677L13.8731 22.7107L25.3186 15.4899C25.8589 15.1622 26.3548 15.3384 25.9478 15.6996L16.6755 24.0671L16.6737 24.066L16.3334 29.1648Z" fill="black"/>
<path fill-rule="evenodd" clip-rule="evenodd" d="M20 40C31.0457 40 40 31.0457 40 20C40 8.95431 31.0457 0 20 0C8.95431 0 0 8.95431 0 20C0 31.0457 8.95431 40 20 40ZM16.3334 29.1648C16.8198 29.1648 17.0421 28.9484 17.3108 28.6868L17.3334 28.6648L19.7344 26.3301L24.7337 30.0236C25.6534 30.5311 26.3172 30.2683 26.5463 29.1697L29.8272 13.7092C30.1631 12.3625 29.3138 11.7517 28.4339 12.1512L9.16894 19.5797C7.85392 20.1071 7.86159 20.8408 8.92924 21.1677L13.8731 22.7107L25.3186 15.4899C25.8589 15.1622 26.3548 15.3384 25.9478 15.6996L16.6755 24.0671L16.6737 24.066L16.3334 29.1648Z" fill="url(#paint0_linear_7_263)"/>
<path d="M66.052 14.8H60.82V29.5H57.592V14.8H52.36V12.148H66.052V14.8ZM72.9038 21.928C72.9038 21.544 72.8478 21.184 72.7358 20.848C72.6318 20.504 72.4718 20.204 72.2558 19.948C72.0398 19.692 71.7638 19.492 71.4278 19.348C71.0998 19.196 70.7158 19.12 70.2758 19.12C69.4198 19.12 68.7438 19.364 68.2478 19.852C67.7598 20.34 67.4478 21.032 67.3118 21.928H72.9038ZM67.2518 23.716C67.2998 24.348 67.4118 24.896 67.5878 25.36C67.7638 25.816 67.9958 26.196 68.2838 26.5C68.5718 26.796 68.9118 27.02 69.3038 27.172C69.7038 27.316 70.1438 27.388 70.6238 27.388C71.1038 27.388 71.5158 27.332 71.8598 27.22C72.2118 27.108 72.5158 26.984 72.7718 26.848C73.0358 26.712 73.2638 26.588 73.4558 26.476C73.6558 26.364 73.8478 26.308 74.0318 26.308C74.2798 26.308 74.4638 26.4 74.5838 26.584L75.4358 27.664C75.1078 28.048 74.7398 28.372 74.3318 28.636C73.9238 28.892 73.4958 29.1 73.0478 29.26C72.6078 29.412 72.1558 29.52 71.6918 29.584C71.2358 29.648 70.7918 29.68 70.3598 29.68C69.5038 29.68 68.7078 29.54 67.9718 29.26C67.2358 28.972 66.5958 28.552 66.0518 28C65.5078 27.44 65.0798 26.752 64.7678 25.936C64.4558 25.112 64.2998 24.16 64.2998 23.08C64.2998 22.24 64.4358 21.452 64.7078 20.716C64.9798 19.972 65.3678 19.328 65.8718 18.784C66.3838 18.232 67.0038 17.796 67.7318 17.476C68.4678 17.156 69.2958 16.996 70.2158 16.996C70.9918 16.996 71.7078 17.12 72.3638 17.368C73.0198 17.616 73.5838 17.98 74.0558 18.46C74.5278 18.932 74.8958 19.516 75.1598 20.212C75.4318 20.9 75.5678 21.688 75.5678 22.576C75.5678 23.024 75.5198 23.328 75.4238 23.488C75.3278 23.64 75.1438 23.716 74.8718 23.716H67.2518ZM80.7921 11.668V29.5H77.8281V11.668H80.7921ZM91.6773 21.928C91.6773 21.544 91.6213 21.184 91.5093 20.848C91.4053 20.504 91.2453 20.204 91.0293 19.948C90.8133 19.692 90.5373 19.492 90.2013 19.348C89.8733 19.196 89.4893 19.12 89.0493 19.12C88.1933 19.12 87.5173 19.364 87.0213 19.852C86.5333 20.34 86.2213 21.032 86.0853 21.928H91.6773ZM86.0253 23.716C86.0733 24.348 86.1853 24.896 86.3613 25.36C86.5373 25.816 86.7693 26.196 87.0573 26.5C87.3453 26.796 87.6853 27.02 88.0773 27.172C88.4773 27.316 88.9173 27.388 89.3973 27.388C89.8773 27.388 90.2893 27.332 90.6333 27.22C90.9853 27.108 91.2893 26.984 91.5453 26.848C91.8093 26.712 92.0373 26.588 92.2293 26.476C92.4293 26.364 92.6213 26.308 92.8053 26.308C93.0533 26.308 93.2373 26.4 93.3573 26.584L94.2093 27.664C93.8813 28.048 93.5133 28.372 93.1053 28.636C92.6973 28.892 92.2693 29.1 91.8213 29.26C91.3813 29.412 90.9293 29.52 90.4653 29.584C90.0093 29.648 89.5653 29.68 89.1333 29.68C88.2773 29.68 87.4813 29.54 86.7453 29.26C86.0093 28.972 85.3693 28.552 84.8253 28C84.2813 27.44 83.8533 26.752 83.5413 25.936C83.2293 25.112 83.0732 24.16 83.0732 23.08C83.0732 22.24 83.2093 21.452 83.4813 20.716C83.7533 19.972 84.1413 19.328 84.6453 18.784C85.1573 18.232 85.7773 17.796 86.5053 17.476C87.2413 17.156 88.0693 16.996 88.9893 16.996C89.7653 16.996 90.4813 17.12 91.1373 17.368C91.7933 17.616 92.3573 17.98 92.8293 18.46C93.3013 18.932 93.6693 19.516 93.9333 20.212C94.2053 20.9 94.3412 21.688 94.3412 22.576C94.3412 23.024 94.2933 23.328 94.1973 23.488C94.1013 23.64 93.9173 23.716 93.6453 23.716H86.0253ZM101.066 23.044C101.434 23.044 101.754 22.996 102.026 22.9C102.298 22.796 102.522 22.656 102.698 22.48C102.882 22.304 103.018 22.092 103.106 21.844C103.202 21.596 103.25 21.324 103.25 21.028C103.25 20.42 103.066 19.94 102.698 19.588C102.338 19.228 101.794 19.048 101.066 19.048C100.338 19.048 99.7896 19.228 99.4216 19.588C99.0616 19.94 98.8816 20.42 98.8816 21.028C98.8816 21.316 98.9256 21.584 99.0136 21.832C99.1096 22.08 99.2456 22.296 99.4216 22.48C99.6056 22.656 99.8336 22.796 100.106 22.9C100.386 22.996 100.706 23.044 101.066 23.044ZM104.414 30.052C104.414 29.812 104.342 29.616 104.198 29.464C104.054 29.312 103.858 29.196 103.61 29.116C103.362 29.028 103.07 28.964 102.734 28.924C102.406 28.884 102.054 28.856 101.678 28.84C101.31 28.816 100.926 28.796 100.526 28.78C100.134 28.764 99.7496 28.732 99.3736 28.684C99.0456 28.868 98.7776 29.084 98.5696 29.332C98.3696 29.58 98.2696 29.868 98.2696 30.196C98.2696 30.412 98.3216 30.612 98.4256 30.796C98.5376 30.988 98.7096 31.152 98.9416 31.288C99.1816 31.424 99.4896 31.528 99.8656 31.6C100.242 31.68 100.702 31.72 101.246 31.72C101.798 31.72 102.274 31.676 102.674 31.588C103.074 31.508 103.402 31.392 103.658 31.24C103.922 31.096 104.114 30.92 104.234 30.712C104.354 30.512 104.414 30.292 104.414 30.052ZM107.366 17.608V18.712C107.366 19.064 107.154 19.28 106.73 19.36L105.626 19.564C105.794 19.988 105.878 20.452 105.878 20.956C105.878 21.564 105.754 22.116 105.506 22.612C105.266 23.1 104.93 23.516 104.498 23.86C104.066 24.204 103.554 24.472 102.962 24.664C102.378 24.848 101.746 24.94 101.066 24.94C100.826 24.94 100.594 24.928 100.37 24.904C100.146 24.88 99.9256 24.848 99.7096 24.808C99.3256 25.04 99.1336 25.3 99.1336 25.588C99.1336 25.836 99.2456 26.02 99.4696 26.14C99.7016 26.252 100.006 26.332 100.382 26.38C100.758 26.428 101.186 26.46 101.666 26.476C102.146 26.484 102.638 26.508 103.142 26.548C103.646 26.588 104.138 26.66 104.618 26.764C105.098 26.86 105.526 27.016 105.902 27.232C106.278 27.448 106.578 27.744 106.802 28.12C107.034 28.488 107.15 28.964 107.15 29.548C107.15 30.092 107.014 30.62 106.742 31.132C106.478 31.644 106.09 32.1 105.578 32.5C105.074 32.9 104.45 33.22 103.706 33.46C102.97 33.708 102.13 33.832 101.186 33.832C100.258 33.832 99.4496 33.74 98.7616 33.556C98.0736 33.38 97.5016 33.14 97.0456 32.836C96.5896 32.54 96.2496 32.196 96.0256 31.804C95.8016 31.412 95.6896 31.004 95.6896 30.58C95.6896 30.004 95.8616 29.524 96.2056 29.14C96.5576 28.748 97.0376 28.436 97.6456 28.204C97.3176 28.036 97.0576 27.812 96.8656 27.532C96.6736 27.252 96.5776 26.884 96.5776 26.428C96.5776 26.244 96.6096 26.056 96.6736 25.864C96.7456 25.664 96.8456 25.468 96.9736 25.276C97.1096 25.084 97.2776 24.904 97.4776 24.736C97.6776 24.56 97.9136 24.404 98.1856 24.268C97.5616 23.932 97.0696 23.484 96.7096 22.924C96.3576 22.364 96.1816 21.708 96.1816 20.956C96.1816 20.348 96.3016 19.8 96.5416 19.312C96.7896 18.816 97.1296 18.396 97.5616 18.052C98.0016 17.7 98.5176 17.432 99.1096 17.248C99.7096 17.064 100.362 16.972 101.066 16.972C101.594 16.972 102.09 17.028 102.554 17.14C103.018 17.244 103.442 17.4 103.826 17.608H107.366ZM112.041 19.324C112.425 18.588 112.881 18.012 113.409 17.596C113.937 17.172 114.561 16.96 115.281 16.96C115.849 16.96 116.305 17.084 116.649 17.332L116.457 19.552C116.417 19.696 116.357 19.8 116.277 19.864C116.205 19.92 116.105 19.948 115.977 19.948C115.857 19.948 115.677 19.928 115.437 19.888C115.205 19.848 114.977 19.828 114.753 19.828C114.425 19.828 114.133 19.876 113.877 19.972C113.621 20.068 113.389 20.208 113.181 20.392C112.981 20.568 112.801 20.784 112.641 21.04C112.489 21.296 112.345 21.588 112.209 21.916V29.5H109.245V17.188H110.985C111.289 17.188 111.501 17.244 111.621 17.356C111.741 17.46 111.821 17.652 111.861 17.932L112.041 19.324ZM124.538 24.244C123.682 24.284 122.962 24.36 122.378 24.472C121.794 24.576 121.326 24.712 120.974 24.88C120.622 25.048 120.37 25.244 120.218 25.468C120.066 25.692 119.99 25.936 119.99 26.2C119.99 26.72 120.142 27.092 120.446 27.316C120.758 27.54 121.162 27.652 121.658 27.652C122.266 27.652 122.79 27.544 123.23 27.328C123.678 27.104 124.114 26.768 124.538 26.32V24.244ZM117.746 18.904C119.162 17.608 120.866 16.96 122.858 16.96C123.578 16.96 124.222 17.08 124.79 17.32C125.358 17.552 125.838 17.88 126.23 18.304C126.622 18.72 126.918 19.22 127.118 19.804C127.326 20.388 127.43 21.028 127.43 21.724V29.5H126.086C125.806 29.5 125.59 29.46 125.438 29.38C125.286 29.292 125.166 29.12 125.078 28.864L124.814 27.976C124.502 28.256 124.198 28.504 123.902 28.72C123.606 28.928 123.298 29.104 122.978 29.248C122.658 29.392 122.314 29.5 121.946 29.572C121.586 29.652 121.186 29.692 120.746 29.692C120.226 29.692 119.746 29.624 119.306 29.488C118.866 29.344 118.486 29.132 118.166 28.852C117.846 28.572 117.598 28.224 117.422 27.808C117.246 27.392 117.158 26.908 117.158 26.356C117.158 26.044 117.21 25.736 117.314 25.432C117.418 25.12 117.586 24.824 117.818 24.544C118.058 24.264 118.366 24 118.742 23.752C119.118 23.504 119.578 23.288 120.122 23.104C120.674 22.92 121.314 22.772 122.042 22.66C122.77 22.54 123.602 22.468 124.538 22.444V21.724C124.538 20.9 124.362 20.292 124.01 19.9C123.658 19.5 123.15 19.3 122.486 19.3C122.006 19.3 121.606 19.356 121.286 19.468C120.974 19.58 120.698 19.708 120.458 19.852C120.218 19.988 119.998 20.112 119.798 20.224C119.606 20.336 119.39 20.392 119.15 20.392C118.942 20.392 118.766 20.34 118.622 20.236C118.478 20.124 118.362 19.996 118.274 19.852L117.746 18.904ZM130.222 29.5V17.188H132.034C132.418 17.188 132.67 17.368 132.79 17.728L132.982 18.64C133.198 18.4 133.422 18.18 133.654 17.98C133.894 17.78 134.146 17.608 134.41 17.464C134.682 17.32 134.97 17.208 135.274 17.128C135.586 17.04 135.926 16.996 136.294 16.996C137.07 16.996 137.706 17.208 138.202 17.632C138.706 18.048 139.082 18.604 139.33 19.3C139.522 18.892 139.762 18.544 140.05 18.256C140.338 17.96 140.654 17.72 140.998 17.536C141.342 17.352 141.706 17.216 142.09 17.128C142.482 17.04 142.874 16.996 143.266 16.996C143.946 16.996 144.55 17.1 145.078 17.308C145.606 17.516 146.05 17.82 146.41 18.22C146.77 18.62 147.042 19.108 147.226 19.684C147.418 20.26 147.514 20.92 147.514 21.664V29.5H144.55V21.664C144.55 20.88 144.378 20.292 144.034 19.9C143.69 19.5 143.186 19.3 142.522 19.3C142.218 19.3 141.934 19.352 141.67 19.456C141.414 19.56 141.186 19.712 140.986 19.912C140.794 20.104 140.642 20.348 140.53 20.644C140.418 20.94 140.362 21.28 140.362 21.664V29.5H137.386V21.664C137.386 20.84 137.218 20.24 136.882 19.864C136.554 19.488 136.07 19.3 135.43 19.3C134.998 19.3 134.594 19.408 134.218 19.624C133.85 19.832 133.506 20.12 133.186 20.488V29.5H130.222Z" fill="black"/>
<path d="M66.052 14.8H60.82V29.5H57.592V14.8H52.36V12.148H66.052V14.8ZM72.9038 21.928C72.9038 21.544 72.8478 21.184 72.7358 20.848C72.6318 20.504 72.4718 20.204 72.2558 19.948C72.0398 19.692 71.7638 19.492 71.4278 19.348C71.0998 19.196 70.7158 19.12 70.2758 19.12C69.4198 19.12 68.7438 19.364 68.2478 19.852C67.7598 20.34 67.4478 21.032 67.3118 21.928H72.9038ZM67.2518 23.716C67.2998 24.348 67.4118 24.896 67.5878 25.36C67.7638 25.816 67.9958 26.196 68.2838 26.5C68.5718 26.796 68.9118 27.02 69.3038 27.172C69.7038 27.316 70.1438 27.388 70.6238 27.388C71.1038 27.388 71.5158 27.332 71.8598 27.22C72.2118 27.108 72.5158 26.984 72.7718 26.848C73.0358 26.712 73.2638 26.588 73.4558 26.476C73.6558 26.364 73.8478 26.308 74.0318 26.308C74.2798 26.308 74.4638 26.4 74.5838 26.584L75.4358 27.664C75.1078 28.048 74.7398 28.372 74.3318 28.636C73.9238 28.892 73.4958 29.1 73.0478 29.26C72.6078 29.412 72.1558 29.52 71.6918 29.584C71.2358 29.648 70.7918 29.68 70.3598 29.68C69.5038 29.68 68.7078 29.54 67.9718 29.26C67.2358 28.972 66.5958 28.552 66.0518 28C65.5078 27.44 65.0798 26.752 64.7678 25.936C64.4558 25.112 64.2998 24.16 64.2998 23.08C64.2998 22.24 64.4358 21.452 64.7078 20.716C64.9798 19.972 65.3678 19.328 65.8718 18.784C66.3838 18.232 67.0038 17.796 67.7318 17.476C68.4678 17.156 69.2958 16.996 70.2158 16.996C70.9918 16.996 71.7078 17.12 72.3638 17.368C73.0198 17.616 73.5838 17.98 74.0558 18.46C74.5278 18.932 74.8958 19.516 75.1598 20.212C75.4318 20.9 75.5678 21.688 75.5678 22.576C75.5678 23.024 75.5198 23.328 75.4238 23.488C75.3278 23.64 75.1438 23.716 74.8718 23.716H67.2518ZM80.7921 11.668V29.5H77.8281V11.668H80.7921ZM91.6773 21.928C91.6773 21.544 91.6213 21.184 91.5093 20.848C91.4053 20.504 91.2453 20.204 91.0293 19.948C90.8133 19.692 90.5373 19.492 90.2013 19.348C89.8733 19.196 89.4893 19.12 89.0493 19.12C88.1933 19.12 87.5173 19.364 87.0213 19.852C86.5333 20.34 86.2213 21.032 86.0853 21.928H91.6773ZM86.0253 23.716C86.0733 24.348 86.1853 24.896 86.3613 25.36C86.5373 25.816 86.7693 26.196 87.0573 26.5C87.3453 26.796 87.6853 27.02 88.0773 27.172C88.4773 27.316 88.9173 27.388 89.3973 27.388C89.8773 27.388 90.2893 27.332 90.6333 27.22C90.9853 27.108 91.2893 26.984 91.5453 26.848C91.8093 26.712 92.0373 26.588 92.2293 26.476C92.4293 26.364 92.6213 26.308 92.8053 26.308C93.0533 26.308 93.2373 26.4 93.3573 26.584L94.2093 27.664C93.8813 28.048 93.5133 28.372 93.1053 28.636C92.6973 28.892 92.2693 29.1 91.8213 29.26C91.3813 29.412 90.9293 29.52 90.4653 29.584C90.0093 29.648 89.5653 29.68 89.1333 29.68C88.2773 29.68 87.4813 29.54 86.7453 29.26C86.0093 28.972 85.3693 28.552 84.8253 28C84.2813 27.44 83.8533 26.752 83.5413 25.936C83.2293 25.112 83.0732 24.16 83.0732 23.08C83.0732 22.24 83.2093 21.452 83.4813 20.716C83.7533 19.972 84.1413 19.328 84.6453 18.784C85.1573 18.232 85.7773 17.796 86.5053 17.476C87.2413 17.156 88.0693 16.996 88.9893 16.996C89.7653 16.996 90.4813 17.12 91.1373 17.368C91.7933 17.616 92.3573 17.98 92.8293 18.46C93.3013 18.932 93.6693 19.516 93.9333 20.212C94.2053 20.9 94.3412 21.688 94.3412 22.576C94.3412 23.024 94.2933 23.328 94.1973 23.488C94.1013 23.64 93.9173 23.716 93.6453 23.716H86.0253ZM101.066 23.044C101.434 23.044 101.754 22.996 102.026 22.9C102.298 22.796 102.522 22.656 102.698 22.48C102.882 22.304 103.018 22.092 103.106 21.844C103.202 21.596 103.25 21.324 103.25 21.028C103.25 20.42 103.066 19.94 102.698 19.588C102.338 19.228 101.794 19.048 101.066 19.048C100.338 19.048 99.7896 19.228 99.4216 19.588C99.0616 19.94 98.8816 20.42 98.8816 21.028C98.8816 21.316 98.9256 21.584 99.0136 21.832C99.1096 22.08 99.2456 22.296 99.4216 22.48C99.6056 22.656 99.8336 22.796 100.106 22.9C100.386 22.996 100.706 23.044 101.066 23.044ZM104.414 30.052C104.414 29.812 104.342 29.616 104.198 29.464C104.054 29.312 103.858 29.196 103.61 29.116C103.362 29.028 103.07 28.964 102.734 28.924C102.406 28.884 102.054 28.856 101.678 28.84C101.31 28.816 100.926 28.796 100.526 28.78C100.134 28.764 99.7496 28.732 99.3736 28.684C99.0456 28.868 98.7776 29.084 98.5696 29.332C98.3696 29.58 98.2696 29.868 98.2696 30.196C98.2696 30.412 98.3216 30.612 98.4256 30.796C98.5376 30.988 98.7096 31.152 98.9416 31.288C99.1816 31.424 99.4896 31.528 99.8656 31.6C100.242 31.68 100.702 31.72 101.246 31.72C101.798 31.72 102.274 31.676 102.674 31.588C103.074 31.508 103.402 31.392 103.658 31.24C103.922 31.096 104.114 30.92 104.234 30.712C104.354 30.512 104.414 30.292 104.414 30.052ZM107.366 17.608V18.712C107.366 19.064 107.154 19.28 106.73 19.36L105.626 19.564C105.794 19.988 105.878 20.452 105.878 20.956C105.878 21.564 105.754 22.116 105.506 22.612C105.266 23.1 104.93 23.516 104.498 23.86C104.066 24.204 103.554 24.472 102.962 24.664C102.378 24.848 101.746 24.94 101.066 24.94C100.826 24.94 100.594 24.928 100.37 24.904C100.146 24.88 99.9256 24.848 99.7096 24.808C99.3256 25.04 99.1336 25.3 99.1336 25.588C99.1336 25.836 99.2456 26.02 99.4696 26.14C99.7016 26.252 100.006 26.332 100.382 26.38C100.758 26.428 101.186 26.46 101.666 26.476C102.146 26.484 102.638 26.508 103.142 26.548C103.646 26.588 104.138 26.66 104.618 26.764C105.098 26.86 105.526 27.016 105.902 27.232C106.278 27.448 106.578 27.744 106.802 28.12C107.034 28.488 107.15 28.964 107.15 29.548C107.15 30.092 107.014 30.62 106.742 31.132C106.478 31.644 106.09 32.1 105.578 32.5C105.074 32.9 104.45 33.22 103.706 33.46C102.97 33.708 102.13 33.832 101.186 33.832C100.258 33.832 99.4496 33.74 98.7616 33.556C98.0736 33.38 97.5016 33.14 97.0456 32.836C96.5896 32.54 96.2496 32.196 96.0256 31.804C95.8016 31.412 95.6896 31.004 95.6896 30.58C95.6896 30.004 95.8616 29.524 96.2056 29.14C96.5576 28.748 97.0376 28.436 97.6456 28.204C97.3176 28.036 97.0576 27.812 96.8656 27.532C96.6736 27.252 96.5776 26.884 96.5776 26.428C96.5776 26.244 96.6096 26.056 96.6736 25.864C96.7456 25.664 96.8456 25.468 96.9736 25.276C97.1096 25.084 97.2776 24.904 97.4776 24.736C97.6776 24.56 97.9136 24.404 98.1856 24.268C97.5616 23.932 97.0696 23.484 96.7096 22.924C96.3576 22.364 96.1816 21.708 96.1816 20.956C96.1816 20.348 96.3016 19.8 96.5416 19.312C96.7896 18.816 97.1296 18.396 97.5616 18.052C98.0016 17.7 98.5176 17.432 99.1096 17.248C99.7096 17.064 100.362 16.972 101.066 16.972C101.594 16.972 102.09 17.028 102.554 17.14C103.018 17.244 103.442 17.4 103.826 17.608H107.366ZM112.041 19.324C112.425 18.588 112.881 18.012 113.409 17.596C113.937 17.172 114.561 16.96 115.281 16.96C115.849 16.96 116.305 17.084 116.649 17.332L116.457 19.552C116.417 19.696 116.357 19.8 116.277 19.864C116.205 19.92 116.105 19.948 115.977 19.948C115.857 19.948 115.677 19.928 115.437 19.888C115.205 19.848 114.977 19.828 114.753 19.828C114.425 19.828 114.133 19.876 113.877 19.972C113.621 20.068 113.389 20.208 113.181 20.392C112.981 20.568 112.801 20.784 112.641 21.04C112.489 21.296 112.345 21.588 112.209 21.916V29.5H109.245V17.188H110.985C111.289 17.188 111.501 17.244 111.621 17.356C111.741 17.46 111.821 17.652 111.861 17.932L112.041 19.324ZM124.538 24.244C123.682 24.284 122.962 24.36 122.378 24.472C121.794 24.576 121.326 24.712 120.974 24.88C120.622 25.048 120.37 25.244 120.218 25.468C120.066 25.692 119.99 25.936 119.99 26.2C119.99 26.72 120.142 27.092 120.446 27.316C120.758 27.54 121.162 27.652 121.658 27.652C122.266 27.652 122.79 27.544 123.23 27.328C123.678 27.104 124.114 26.768 124.538 26.32V24.244ZM117.746 18.904C119.162 17.608 120.866 16.96 122.858 16.96C123.578 16.96 124.222 17.08 124.79 17.32C125.358 17.552 125.838 17.88 126.23 18.304C126.622 18.72 126.918 19.22 127.118 19.804C127.326 20.388 127.43 21.028 127.43 21.724V29.5H126.086C125.806 29.5 125.59 29.46 125.438 29.38C125.286 29.292 125.166 29.12 125.078 28.864L124.814 27.976C124.502 28.256 124.198 28.504 123.902 28.72C123.606 28.928 123.298 29.104 122.978 29.248C122.658 29.392 122.314 29.5 121.946 29.572C121.586 29.652 121.186 29.692 120.746 29.692C120.226 29.692 119.746 29.624 119.306 29.488C118.866 29.344 118.486 29.132 118.166 28.852C117.846 28.572 117.598 28.224 117.422 27.808C117.246 27.392 117.158 26.908 117.158 26.356C117.158 26.044 117.21 25.736 117.314 25.432C117.418 25.12 117.586 24.824 117.818 24.544C118.058 24.264 118.366 24 118.742 23.752C119.118 23.504 119.578 23.288 120.122 23.104C120.674 22.92 121.314 22.772 122.042 22.66C122.77 22.54 123.602 22.468 124.538 22.444V21.724C124.538 20.9 124.362 20.292 124.01 19.9C123.658 19.5 123.15 19.3 122.486 19.3C122.006 19.3 121.606 19.356 121.286 19.468C120.974 19.58 120.698 19.708 120.458 19.852C120.218 19.988 119.998 20.112 119.798 20.224C119.606 20.336 119.39 20.392 119.15 20.392C118.942 20.392 118.766 20.34 118.622 20.236C118.478 20.124 118.362 19.996 118.274 19.852L117.746 18.904ZM130.222 29.5V17.188H132.034C132.418 17.188 132.67 17.368 132.79 17.728L132.982 18.64C133.198 18.4 133.422 18.18 133.654 17.98C133.894 17.78 134.146 17.608 134.41 17.464C134.682 17.32 134.97 17.208 135.274 17.128C135.586 17.04 135.926 16.996 136.294 16.996C137.07 16.996 137.706 17.208 138.202 17.632C138.706 18.048 139.082 18.604 139.33 19.3C139.522 18.892 139.762 18.544 140.05 18.256C140.338 17.96 140.654 17.72 140.998 17.536C141.342 17.352 141.706 17.216 142.09 17.128C142.482 17.04 142.874 16.996 143.266 16.996C143.946 16.996 144.55 17.1 145.078 17.308C145.606 17.516 146.05 17.82 146.41 18.22C146.77 18.62 147.042 19.108 147.226 19.684C147.418 20.26 147.514 20.92 147.514 21.664V29.5H144.55V21.664C144.55 20.88 144.378 20.292 144.034 19.9C143.69 19.5 143.186 19.3 142.522 19.3C142.218 19.3 141.934 19.352 141.67 19.456C141.414 19.56 141.186 19.712 140.986 19.912C140.794 20.104 140.642 20.348 140.53 20.644C140.418 20.94 140.362 21.28 140.362 21.664V29.5H137.386V21.664C137.386 20.84 137.218 20.24 136.882 19.864C136.554 19.488 136.07 19.3 135.43 19.3C134.998 19.3 134.594 19.408 134.218 19.624C133.85 19.832 133.506 20.12 133.186 20.488V29.5H130.222Z" fill="url(#paint1_linear_7_263)"/>
<defs>
<linearGradient id="paint0_linear_7_263" x1="20" y1="0" x2="20" y2="40" gradientUnits="userSpaceOnUse">
<stop stop-color="#36ACE9"/>
<stop offset="1" stop-color="#299DD5"/>
</linearGradient>
<linearGradient id="paint1_linear_7_263" x1="100.5" y1="5.5" x2="100.5" y2="34.5" gradientUnits="userSpaceOnUse">
<stop stop-color="#36ACE9"/>
<stop offset="1" stop-color="#299DD5"/>
</linearGradient>
</defs>
</svg>
