<svg width="167" height="40" viewBox="0 0 167 40" fill="none" xmlns="http://www.w3.org/2000/svg">
<g clip-path="url(#clip0_7_267)">
<path d="M20 40C31.0457 40 40 31.0457 40 20C40 8.9543 31.0457 0 20 0C8.9543 0 0 8.9543 0 20C0 31.0457 8.9543 40 20 40Z" fill="#4169E1"/>
<path d="M31.5273 27.8273C30.9454 27.9091 28.1 27.8273 27.9523 27.8273C27.2167 27.8367 26.5071 27.5558 25.9773 27.0455C25.3773 26.4682 24.8409 25.8318 24.2545 25.2273C24.0811 25.0438 23.8934 24.8743 23.6932 24.7205C23.225 24.3591 22.7614 24.4409 22.5409 24.9932C22.3687 25.59 22.2485 26.2006 22.1818 26.8182C22.1432 27.3773 21.7886 27.7273 21.1614 27.7659C20.7727 27.7864 20.3841 27.7932 20 27.7841C18.6002 27.7752 17.2225 27.4348 15.9795 26.7909C14.6347 26.0415 13.463 25.017 12.5409 23.7841C11.025 21.8477 9.81363 19.7205 8.73181 17.5273C8.67499 17.4182 7.5659 15.0591 7.53863 14.9477C7.43863 14.575 7.53863 14.2182 7.84545 14.0955C8.0409 14.0205 11.6954 14.0955 11.7568 14.0955C12.0285 14.0931 12.2939 14.1773 12.5145 14.3358C12.7352 14.4944 12.8996 14.719 12.9841 14.9773C13.6597 16.7071 14.5846 18.3288 15.7295 19.7909C15.8898 19.9864 16.0773 20.1579 16.2864 20.3C16.5841 20.5023 16.8659 20.4318 16.9886 20.0887C17.1341 19.6125 17.2196 19.1201 17.2432 18.6227C17.2636 17.6364 17.2432 16.9864 17.1886 16.0023C17.1523 15.3705 16.9295 14.8159 15.9977 14.6387C15.7114 14.5887 15.6864 14.3523 15.8705 14.1159C16.2545 13.625 16.7795 13.5477 17.3682 13.5182C18.2454 13.4682 19.1227 13.5023 20 13.5182H20.1909C20.5727 13.5168 20.9536 13.5557 21.3273 13.6341C21.5482 13.6788 21.7487 13.7936 21.899 13.9615C22.0493 14.1295 22.1413 14.3415 22.1614 14.5659C22.2062 14.8148 22.2253 15.0677 22.2182 15.3205C22.1954 16.3977 22.1432 17.4727 22.1318 18.55C22.1213 18.9766 22.1602 19.4029 22.2477 19.8205C22.3727 20.3932 22.7659 20.5364 23.1568 20.1227C23.663 19.588 24.1272 19.0151 24.5455 18.4091C25.285 17.3047 25.895 16.1188 26.3636 14.875C26.6182 14.2364 26.8182 14.0955 27.5 14.0955H31.3773C31.6078 14.0914 31.8377 14.1221 32.0591 14.1864C32.1375 14.207 32.2107 14.2435 32.2743 14.2938C32.3379 14.344 32.3905 14.4068 32.4286 14.4783C32.4668 14.5498 32.4899 14.6283 32.4963 14.7091C32.5027 14.7899 32.4923 14.8711 32.4659 14.9477C32.275 15.7977 31.8159 16.5227 31.3295 17.2205C30.5409 18.3387 29.7091 19.4273 28.9023 20.5273C28.8002 20.6732 28.7069 20.825 28.6227 20.9818C28.3182 21.5296 28.3409 21.8364 28.7818 22.2932C29.4864 23.0159 30.2386 23.6955 30.9182 24.4409C31.4171 24.9829 31.8673 25.5677 32.2636 26.1887C32.7614 26.9591 32.4545 27.6955 31.5273 27.8273Z" fill="white"/>
</g>
<path d="M68.8 12.148L61.792 29.5H58.876L51.868 12.148H54.46C54.74 12.148 54.968 12.216 55.144 12.352C55.32 12.488 55.452 12.664 55.54 12.88L59.632 23.464C59.768 23.808 59.896 24.188 60.016 24.604C60.144 25.012 60.264 25.44 60.376 25.888C60.472 25.44 60.576 25.012 60.688 24.604C60.8 24.188 60.924 23.808 61.06 23.464L65.128 12.88C65.192 12.696 65.316 12.528 65.5 12.376C65.692 12.224 65.924 12.148 66.196 12.148H68.8ZM73.8241 19.42H74.5801C74.8841 19.42 75.1361 19.38 75.3361 19.3C75.5361 19.212 75.7081 19.076 75.8521 18.892L80.6401 12.832C80.8401 12.576 81.0481 12.4 81.2641 12.304C81.4881 12.2 81.7681 12.148 82.1041 12.148H84.8881L79.0441 19.36C78.7001 19.8 78.3441 20.112 77.9761 20.296C78.2401 20.392 78.4761 20.528 78.6841 20.704C78.9001 20.872 79.1041 21.096 79.2961 21.376L85.3201 29.5H82.4761C82.0921 29.5 81.8041 29.448 81.6121 29.344C81.4281 29.232 81.2721 29.072 81.1441 28.864L76.2361 22.456C76.0841 22.24 75.9081 22.088 75.7081 22C75.5081 21.912 75.2201 21.868 74.8441 21.868H73.8241V29.5H70.5961V12.148H73.8241V19.42ZM91.1386 16.996C92.0506 16.996 92.8786 17.144 93.6226 17.44C94.3746 17.736 95.0146 18.156 95.5426 18.7C96.0786 19.244 96.4906 19.908 96.7786 20.692C97.0666 21.476 97.2106 22.352 97.2106 23.32C97.2106 24.296 97.0666 25.176 96.7786 25.96C96.4906 26.744 96.0786 27.412 95.5426 27.964C95.0146 28.516 94.3746 28.94 93.6226 29.236C92.8786 29.532 92.0506 29.68 91.1386 29.68C90.2186 29.68 89.3826 29.532 88.6306 29.236C87.8786 28.94 87.2346 28.516 86.6986 27.964C86.1706 27.412 85.7586 26.744 85.4626 25.96C85.1746 25.176 85.0306 24.296 85.0306 23.32C85.0306 22.352 85.1746 21.476 85.4626 20.692C85.7586 19.908 86.1706 19.244 86.6986 18.7C87.2346 18.156 87.8786 17.736 88.6306 17.44C89.3826 17.144 90.2186 16.996 91.1386 16.996ZM91.1386 27.4C92.1626 27.4 92.9186 27.056 93.4066 26.368C93.9026 25.68 94.1506 24.672 94.1506 23.344C94.1506 22.016 93.9026 21.004 93.4066 20.308C92.9186 19.612 92.1626 19.264 91.1386 19.264C90.0986 19.264 89.3266 19.616 88.8226 20.32C88.3266 21.016 88.0786 22.024 88.0786 23.344C88.0786 24.664 88.3266 25.672 88.8226 26.368C89.3266 27.056 90.0986 27.4 91.1386 27.4ZM102.244 18.7C102.492 18.452 102.752 18.224 103.024 18.016C103.304 17.8 103.596 17.62 103.9 17.476C104.212 17.324 104.544 17.208 104.896 17.128C105.248 17.04 105.632 16.996 106.048 16.996C106.72 16.996 107.316 17.112 107.836 17.344C108.356 17.568 108.788 17.888 109.132 18.304C109.484 18.712 109.748 19.204 109.924 19.78C110.108 20.348 110.2 20.976 110.2 21.664V29.5H107.236V21.664C107.236 20.912 107.064 20.332 106.72 19.924C106.376 19.508 105.852 19.3 105.148 19.3C104.636 19.3 104.156 19.416 103.708 19.648C103.26 19.88 102.836 20.196 102.436 20.596V29.5H99.4718V17.188H101.284C101.668 17.188 101.92 17.368 102.04 17.728L102.244 18.7ZM116.959 29.692C115.887 29.692 115.063 29.392 114.487 28.792C113.919 28.184 113.635 27.348 113.635 26.284V19.408H112.375C112.215 19.408 112.079 19.356 111.967 19.252C111.855 19.148 111.799 18.992 111.799 18.784V17.608L113.779 17.284L114.403 13.924C114.443 13.764 114.519 13.64 114.631 13.552C114.743 13.464 114.887 13.42 115.063 13.42H116.599V17.296H119.887V19.408H116.599V26.08C116.599 26.464 116.691 26.764 116.875 26.98C117.067 27.196 117.327 27.304 117.655 27.304C117.839 27.304 117.991 27.284 118.111 27.244C118.239 27.196 118.347 27.148 118.435 27.1C118.531 27.052 118.615 27.008 118.687 26.968C118.759 26.92 118.831 26.896 118.903 26.896C118.991 26.896 119.063 26.92 119.119 26.968C119.175 27.008 119.235 27.072 119.299 27.16L120.187 28.6C119.755 28.96 119.259 29.232 118.699 29.416C118.139 29.6 117.559 29.692 116.959 29.692ZM128.288 24.244C127.432 24.284 126.712 24.36 126.128 24.472C125.544 24.576 125.076 24.712 124.724 24.88C124.372 25.048 124.12 25.244 123.968 25.468C123.816 25.692 123.74 25.936 123.74 26.2C123.74 26.72 123.892 27.092 124.196 27.316C124.508 27.54 124.912 27.652 125.408 27.652C126.016 27.652 126.54 27.544 126.98 27.328C127.428 27.104 127.864 26.768 128.288 26.32V24.244ZM121.496 18.904C122.912 17.608 124.616 16.96 126.608 16.96C127.328 16.96 127.972 17.08 128.54 17.32C129.108 17.552 129.588 17.88 129.98 18.304C130.372 18.72 130.668 19.22 130.868 19.804C131.076 20.388 131.18 21.028 131.18 21.724V29.5H129.836C129.556 29.5 129.34 29.46 129.188 29.38C129.036 29.292 128.916 29.12 128.828 28.864L128.564 27.976C128.252 28.256 127.948 28.504 127.652 28.72C127.356 28.928 127.048 29.104 126.728 29.248C126.408 29.392 126.064 29.5 125.696 29.572C125.336 29.652 124.936 29.692 124.496 29.692C123.976 29.692 123.496 29.624 123.056 29.488C122.616 29.344 122.236 29.132 121.916 28.852C121.596 28.572 121.348 28.224 121.172 27.808C120.996 27.392 120.908 26.908 120.908 26.356C120.908 26.044 120.96 25.736 121.064 25.432C121.168 25.12 121.336 24.824 121.568 24.544C121.808 24.264 122.116 24 122.492 23.752C122.868 23.504 123.328 23.288 123.872 23.104C124.424 22.92 125.064 22.772 125.792 22.66C126.52 22.54 127.352 22.468 128.288 22.444V21.724C128.288 20.9 128.112 20.292 127.76 19.9C127.408 19.5 126.9 19.3 126.236 19.3C125.756 19.3 125.356 19.356 125.036 19.468C124.724 19.58 124.448 19.708 124.208 19.852C123.968 19.988 123.748 20.112 123.548 20.224C123.356 20.336 123.14 20.392 122.9 20.392C122.692 20.392 122.516 20.34 122.372 20.236C122.228 20.124 122.112 19.996 122.024 19.852L121.496 18.904ZM136.936 11.668V21.88H137.488C137.688 21.88 137.844 21.856 137.956 21.808C138.076 21.752 138.196 21.644 138.316 21.484L141.376 17.704C141.504 17.536 141.644 17.408 141.796 17.32C141.956 17.232 142.16 17.188 142.408 17.188H145.12L141.292 21.76C141.02 22.12 140.724 22.396 140.404 22.588C140.572 22.708 140.72 22.848 140.848 23.008C140.984 23.168 141.112 23.34 141.232 23.524L145.336 29.5H142.66C142.428 29.5 142.228 29.464 142.06 29.392C141.892 29.312 141.752 29.172 141.64 28.972L138.496 24.304C138.384 24.12 138.268 24 138.148 23.944C138.028 23.888 137.848 23.86 137.608 23.86H136.936V29.5H133.972V11.668H136.936ZM150.896 29.692C149.824 29.692 149 29.392 148.424 28.792C147.856 28.184 147.572 27.348 147.572 26.284V19.408H146.312C146.152 19.408 146.016 19.356 145.904 19.252C145.792 19.148 145.736 18.992 145.736 18.784V17.608L147.716 17.284L148.34 13.924C148.38 13.764 148.456 13.64 148.568 13.552C148.68 13.464 148.824 13.42 149 13.42H150.536V17.296H153.824V19.408H150.536V26.08C150.536 26.464 150.628 26.764 150.812 26.98C151.004 27.196 151.264 27.304 151.592 27.304C151.776 27.304 151.928 27.284 152.048 27.244C152.176 27.196 152.284 27.148 152.372 27.1C152.468 27.052 152.552 27.008 152.624 26.968C152.696 26.92 152.768 26.896 152.84 26.896C152.928 26.896 153 26.92 153.056 26.968C153.112 27.008 153.172 27.072 153.236 27.16L154.124 28.6C153.692 28.96 153.196 29.232 152.636 29.416C152.076 29.6 151.496 29.692 150.896 29.692ZM163.56 21.928C163.56 21.544 163.504 21.184 163.392 20.848C163.288 20.504 163.128 20.204 162.912 19.948C162.696 19.692 162.42 19.492 162.084 19.348C161.756 19.196 161.372 19.12 160.932 19.12C160.076 19.12 159.4 19.364 158.904 19.852C158.416 20.34 158.104 21.032 157.968 21.928H163.56ZM157.908 23.716C157.956 24.348 158.068 24.896 158.244 25.36C158.42 25.816 158.652 26.196 158.94 26.5C159.228 26.796 159.568 27.02 159.96 27.172C160.36 27.316 160.8 27.388 161.28 27.388C161.76 27.388 162.172 27.332 162.516 27.22C162.868 27.108 163.172 26.984 163.428 26.848C163.692 26.712 163.92 26.588 164.112 26.476C164.312 26.364 164.504 26.308 164.688 26.308C164.936 26.308 165.12 26.4 165.24 26.584L166.092 27.664C165.764 28.048 165.396 28.372 164.988 28.636C164.58 28.892 164.152 29.1 163.704 29.26C163.264 29.412 162.812 29.52 162.348 29.584C161.892 29.648 161.448 29.68 161.016 29.68C160.16 29.68 159.364 29.54 158.628 29.26C157.892 28.972 157.252 28.552 156.708 28C156.164 27.44 155.736 26.752 155.424 25.936C155.112 25.112 154.956 24.16 154.956 23.08C154.956 22.24 155.092 21.452 155.364 20.716C155.636 19.972 156.024 19.328 156.528 18.784C157.04 18.232 157.66 17.796 158.388 17.476C159.124 17.156 159.952 16.996 160.872 16.996C161.648 16.996 162.364 17.12 163.02 17.368C163.676 17.616 164.24 17.98 164.712 18.46C165.184 18.932 165.552 19.516 165.816 20.212C166.088 20.9 166.224 21.688 166.224 22.576C166.224 23.024 166.176 23.328 166.08 23.488C165.984 23.64 165.8 23.716 165.528 23.716H157.908Z" fill="#4169E1"/>
<defs>
<clipPath id="clip0_7_267">
<rect width="40" height="40" fill="white"/>
</clipPath>
</defs>
</svg>
