<svg width="31" height="31" viewBox="0 0 31 31" fill="none" xmlns="http://www.w3.org/2000/svg">
<circle cx="15.502" cy="15.5" r="15.5" fill="#E0E0E0"/>
<path d="M23.0011 19.1833V22.13C23.0012 22.341 22.9213 22.5441 22.7775 22.6985C22.6336 22.8528 22.4366 22.9469 22.2262 22.9617C21.862 22.9867 21.5645 23 21.3345 23C13.9708 23 8.00195 17.0308 8.00195 9.66667C8.00195 9.43667 8.01445 9.13917 8.04028 8.775C8.05505 8.56454 8.1491 8.36751 8.30344 8.22367C8.45778 8.07984 8.66094 7.9999 8.8719 8H11.8184C11.9218 7.9999 12.0215 8.03822 12.0982 8.10752C12.1749 8.17682 12.223 8.27215 12.2334 8.375C12.2526 8.56667 12.27 8.71917 12.2867 8.835C12.4523 9.99077 12.7917 11.1149 13.2933 12.1692C13.3725 12.3358 13.3208 12.535 13.1708 12.6417L11.3726 13.9267C12.4721 16.4887 14.5137 18.5305 17.0756 19.63L18.3589 17.835C18.4113 17.7617 18.4879 17.7091 18.5751 17.6864C18.6624 17.6637 18.7548 17.6723 18.8364 17.7108C19.8905 18.2116 21.0142 18.5501 22.1695 18.715C22.2853 18.7317 22.4378 18.7492 22.6278 18.7683C22.7305 18.7789 22.8256 18.8271 22.8948 18.9038C22.9639 18.9805 23.0012 19.0801 23.0011 19.1833Z" fill="#101010"/>
</svg>
