<svg width="31" height="31" viewBox="0 0 31 31" fill="none" xmlns="http://www.w3.org/2000/svg">
<path fill-rule="evenodd" clip-rule="evenodd" d="M15.501 31.002C24.0619 31.002 31.002 24.0619 31.002 15.501C31.002 6.94003 24.0619 0 15.501 0C6.94003 0 0 6.94003 0 15.501C0 24.0619 6.94003 31.002 15.501 31.002ZM12.6592 22.6042C13.0362 22.6042 13.2085 22.4365 13.4167 22.2337L13.4342 22.2167L15.2952 20.4071L19.1698 23.2698C19.8827 23.6631 20.3972 23.4595 20.5747 22.6079L23.1175 10.6253C23.3779 9.58154 22.7197 9.10814 22.0377 9.41775L7.10638 15.1752C6.08717 15.584 6.09312 16.1526 6.9206 16.406L10.7523 17.6019L19.6231 12.0054C20.0419 11.7515 20.4263 11.888 20.1108 12.168L12.9244 18.6532L12.923 18.6523L12.6592 22.6042Z" fill="url(#paint0_linear_1_77)"/>
<defs>
<linearGradient id="paint0_linear_1_77" x1="15.501" y1="0" x2="15.501" y2="31.002" gradientUnits="userSpaceOnUse">
<stop stop-color="#36ACE9"/>
<stop offset="1" stop-color="#299DD5"/>
</linearGradient>
</defs>
</svg>
