<svg width="40" height="40" viewBox="0 0 40 40" fill="none" xmlns="http://www.w3.org/2000/svg">
<g clip-path="url(#clip0_172_502)">
<path d="M20 40C31.0457 40 40 31.0457 40 20C40 8.9543 31.0457 0 20 0C8.9543 0 0 8.9543 0 20C0 31.0457 8.9543 40 20 40Z" fill="#4169E1"/>
<path d="M31.5273 27.8273C30.9454 27.9091 28.1 27.8273 27.9523 27.8273C27.2167 27.8367 26.5071 27.5558 25.9773 27.0455C25.3773 26.4682 24.8409 25.8318 24.2545 25.2273C24.0811 25.0438 23.8934 24.8743 23.6932 24.7205C23.225 24.3591 22.7614 24.4409 22.5409 24.9932C22.3687 25.59 22.2485 26.2006 22.1818 26.8182C22.1432 27.3773 21.7886 27.7273 21.1614 27.7659C20.7727 27.7864 20.3841 27.7932 20 27.7841C18.6002 27.7752 17.2225 27.4348 15.9795 26.7909C14.6347 26.0415 13.463 25.017 12.5409 23.7841C11.025 21.8477 9.81363 19.7205 8.73181 17.5273C8.67499 17.4182 7.5659 15.0591 7.53863 14.9477C7.43863 14.575 7.53863 14.2182 7.84545 14.0955C8.0409 14.0205 11.6954 14.0955 11.7568 14.0955C12.0285 14.0931 12.2939 14.1773 12.5145 14.3358C12.7352 14.4944 12.8996 14.719 12.9841 14.9773C13.6597 16.7071 14.5846 18.3288 15.7295 19.7909C15.8898 19.9864 16.0773 20.1579 16.2864 20.3C16.5841 20.5023 16.8659 20.4318 16.9886 20.0887C17.1341 19.6125 17.2196 19.1201 17.2432 18.6227C17.2636 17.6364 17.2432 16.9864 17.1886 16.0023C17.1523 15.3705 16.9295 14.8159 15.9977 14.6387C15.7114 14.5887 15.6864 14.3523 15.8705 14.1159C16.2545 13.625 16.7795 13.5477 17.3682 13.5182C18.2454 13.4682 19.1227 13.5023 20 13.5182H20.1909C20.5727 13.5168 20.9536 13.5557 21.3273 13.6341C21.5482 13.6788 21.7487 13.7936 21.899 13.9615C22.0493 14.1295 22.1413 14.3415 22.1614 14.5659C22.2062 14.8148 22.2253 15.0677 22.2182 15.3205C22.1954 16.3977 22.1432 17.4727 22.1318 18.55C22.1213 18.9766 22.1602 19.4029 22.2477 19.8205C22.3727 20.3932 22.7659 20.5364 23.1568 20.1227C23.663 19.588 24.1272 19.0151 24.5455 18.4091C25.285 17.3047 25.895 16.1188 26.3636 14.875C26.6182 14.2364 26.8182 14.0955 27.5 14.0955H31.3773C31.6078 14.0914 31.8377 14.1221 32.0591 14.1864C32.1375 14.207 32.2107 14.2435 32.2743 14.2938C32.3379 14.344 32.3905 14.4068 32.4286 14.4783C32.4668 14.5498 32.4899 14.6283 32.4963 14.7091C32.5027 14.7899 32.4923 14.8711 32.4659 14.9477C32.275 15.7977 31.8159 16.5227 31.3295 17.2205C30.5409 18.3387 29.7091 19.4273 28.9023 20.5273C28.8002 20.6732 28.7069 20.825 28.6227 20.9818C28.3182 21.5296 28.3409 21.8364 28.7818 22.2932C29.4864 23.0159 30.2386 23.6955 30.9182 24.4409C31.4171 24.9829 31.8673 25.5677 32.2636 26.1887C32.7614 26.9591 32.4545 27.6955 31.5273 27.8273Z" fill="white"/>
</g>
<defs>
<clipPath id="clip0_172_502">
<rect width="40" height="40" fill="white"/>
</clipPath>
</defs>
</svg>
