<svg width="31" height="31" viewBox="0 0 31 31" fill="none" xmlns="http://www.w3.org/2000/svg">
<path fill-rule="evenodd" clip-rule="evenodd" d="M15.502 31C24.0624 31 31.002 24.0604 31.002 15.5C31.002 6.93959 24.0624 0 15.502 0C6.94154 0 0.00195312 6.93959 0.00195312 15.5C0.00195312 24.0604 6.94154 31 15.502 31Z" fill="#25D366"/>
<path fill-rule="evenodd" clip-rule="evenodd" d="M16.0129 24.1235H16.0091C14.4665 24.123 12.9508 23.7359 11.6046 23.0016L6.71863 24.2833L8.02619 19.5073C7.21962 18.1095 6.79521 16.5239 6.7959 14.8995C6.79792 9.81775 10.9326 5.68332 16.0128 5.68332C18.4784 5.68438 20.7925 6.64423 22.5326 8.3864C24.2728 10.1285 25.2306 12.4441 25.2296 14.9068C25.2276 19.9874 21.0945 24.1214 16.0129 24.1235ZM11.8309 21.3331L12.1107 21.4991C13.2869 22.1971 14.6351 22.5664 16.0097 22.5669H16.0129C20.2352 22.5669 23.6717 19.1303 23.6734 14.9063C23.6742 12.8593 22.8781 10.9346 21.4318 9.48662C19.9854 8.0386 18.062 7.24077 16.0159 7.24006C11.7903 7.24006 8.35372 10.6763 8.35205 14.9001C8.35145 16.3476 8.75646 17.7572 9.5233 18.9769L9.70545 19.2668L8.93156 22.0937L11.8309 21.3331ZM20.6562 17.0985C20.5987 17.0024 20.4452 16.9448 20.2149 16.8295C19.9846 16.7142 18.8523 16.1572 18.6412 16.0802C18.4301 16.0034 18.2765 15.965 18.123 16.1955C17.9695 16.426 17.5282 16.9448 17.3938 17.0985C17.2595 17.2522 17.1251 17.2715 16.8949 17.1561C16.6646 17.0409 15.9226 16.7977 15.0429 16.0131C14.3583 15.4024 13.8961 14.6483 13.7618 14.4177C13.6274 14.1872 13.7475 14.0626 13.8627 13.9477C13.9664 13.8445 14.0931 13.6787 14.2082 13.5443C14.3233 13.4098 14.3617 13.3137 14.4385 13.1601C14.5152 13.0063 14.4769 12.8719 14.4193 12.7566C14.3617 12.6413 13.9012 11.5078 13.7092 11.0466C13.5223 10.5976 13.3324 10.6584 13.1911 10.6513C13.0569 10.6446 12.9032 10.6432 12.7497 10.6432C12.5962 10.6432 12.3467 10.7008 12.1356 10.9314C11.9245 11.1619 11.3296 11.7191 11.3296 12.8526C11.3296 13.9861 12.1548 15.0812 12.2699 15.2349C12.3851 15.3887 13.8938 17.7147 16.2041 18.7123C16.7535 18.9496 17.1824 19.0913 17.5169 19.1974C18.0686 19.3727 18.5707 19.348 18.9674 19.2887C19.4099 19.2226 20.33 18.7316 20.522 18.1937C20.7138 17.6556 20.7138 17.1945 20.6562 17.0985Z" fill="#FDFDFD"/>
</svg>
