<svg width="158" height="40" viewBox="0 0 158 40" fill="none" xmlns="http://www.w3.org/2000/svg">
<g clip-path="url(#clip0_7_266)">
<path d="M40 20C40 8.95431 31.0457 0 20 0C8.95431 0 0 8.95431 0 20C0 31.0457 8.95431 40 20 40C31.0457 40 40 31.0457 40 20Z" fill="url(#paint0_linear_7_266)"/>
<path d="M35.0526 6.8421C32.1368 12.1947 28.0131 17.7158 22.8605 22.8684C17.7079 28.021 12.1868 32.1368 6.8421 35.0526C6.50701 34.7614 6.18157 34.4579 5.86578 34.1421C3.95698 32.297 2.43462 30.0904 1.38745 27.6509C0.340291 25.2114 -0.210713 22.5878 -0.233429 19.9331C-0.256145 17.2784 0.249881 14.6458 1.25514 12.1887C2.26041 9.73163 3.74479 7.49927 5.62173 5.6218C7.49867 3.74433 9.73062 2.25933 12.1874 1.25338C14.6442 0.247434 17.2767 -0.259327 19.9314 -0.237352C22.5861 -0.215377 25.2098 0.334895 27.6496 1.38138C30.0894 2.42786 32.2965 3.94961 34.1421 5.85789C34.4579 6.17368 34.7614 6.50175 35.0526 6.8421Z" fill="white" fill-opacity="0.0627451"/>
<path d="M24.7368 9.47369H15.2631C13.7277 9.47369 12.2551 10.0837 11.1694 11.1694C10.0836 12.2551 9.47366 13.7277 9.47366 15.2632V24.7369C9.47366 26.2723 10.0836 27.7449 11.1694 28.8306C12.2551 29.9164 13.7277 30.5263 15.2631 30.5263H24.7368C26.2723 30.5263 27.7449 29.9164 28.8306 28.8306C29.9163 27.7449 30.5263 26.2723 30.5263 24.7369V15.2632C30.5263 13.7277 29.9163 12.2551 28.8306 11.1694C27.7449 10.0837 26.2723 9.47369 24.7368 9.47369ZM28.6842 23.9053C28.6842 25.1727 28.1807 26.3883 27.2845 27.2845C26.3882 28.1807 25.1727 28.6842 23.9052 28.6842H16.0947C14.8273 28.6842 13.6117 28.1807 12.7155 27.2845C11.8193 26.3883 11.3158 25.1727 11.3158 23.9053V16.0947C11.3158 14.8273 11.8193 13.6117 12.7155 12.7155C13.6117 11.8193 14.8273 11.3158 16.0947 11.3158H23.9052C25.1727 11.3158 26.3882 11.8193 27.2845 12.7155C28.1807 13.6117 28.6842 14.8273 28.6842 16.0947V23.9053Z" fill="white"/>
<path d="M23.8395 16.2L23.7895 16.15L23.7474 16.1079C22.7524 15.1163 21.4047 14.5599 20 14.5605C19.2906 14.5654 18.5892 14.7099 17.9357 14.9859C17.2822 15.2619 16.6895 15.664 16.1914 16.1691C15.6934 16.6742 15.2997 17.2726 15.033 17.9299C14.7662 18.5872 14.6316 19.2906 14.6368 20C14.6358 21.4396 15.2032 22.8214 16.2158 23.8447C16.7117 24.3467 17.3028 24.7449 17.9543 25.016C18.6058 25.2871 19.3048 25.4257 20.0105 25.4237C21.069 25.4015 22.0982 25.0717 22.9726 24.4747C23.8469 23.8776 24.5286 23.039 24.9345 22.0612C25.3404 21.0833 25.4531 20.0085 25.2586 18.9677C25.0642 17.927 24.5711 16.9653 23.8395 16.2ZM20 23.5684C19.2922 23.5783 18.5974 23.3775 18.004 22.9915C17.4107 22.6055 16.9455 22.0517 16.6678 21.4006C16.39 20.7495 16.3122 20.0305 16.4441 19.335C16.5761 18.6395 16.912 17.999 17.409 17.495C17.906 16.9909 18.5417 16.646 19.2352 16.5043C19.9288 16.3625 20.6488 16.4301 21.3038 16.6987C21.9587 16.9673 22.519 17.4245 22.9134 18.0124C23.3077 18.6003 23.5183 19.2921 23.5184 20C23.5219 20.4654 23.4336 20.9269 23.2586 21.3581C23.0837 21.7894 22.8254 22.1819 22.4987 22.5133C22.1719 22.8447 21.7831 23.1085 21.3543 23.2895C20.9256 23.4705 20.4654 23.5653 20 23.5684ZM26.9553 14.3105C26.9566 14.4794 26.9247 14.6469 26.8613 14.8034C26.7979 14.9599 26.7042 15.1024 26.5856 15.2226C26.4671 15.3429 26.326 15.4386 26.1704 15.5042C26.0148 15.5699 25.8478 15.6042 25.6789 15.6053C25.5115 15.6052 25.3457 15.5719 25.1912 15.5073C25.0367 15.4427 24.8966 15.3481 24.7789 15.229C24.6007 15.0481 24.4794 14.8188 24.4302 14.5697C24.381 14.3205 24.4059 14.0624 24.5021 13.8273C24.5982 13.5922 24.7612 13.3905 24.9708 13.2472C25.1805 13.1039 25.4276 13.0252 25.6816 13.0211C25.9788 13.021 26.2666 13.1253 26.4947 13.3158L26.521 13.3421C26.5635 13.3767 26.6023 13.4155 26.6368 13.4579L26.6658 13.4895C26.8542 13.7215 26.9564 14.0116 26.9553 14.3105Z" fill="white"/>
</g>
<path d="M57.172 29.5H53.932V12.148H57.172V29.5ZM63.1735 18.7C63.4215 18.452 63.6815 18.224 63.9535 18.016C64.2335 17.8 64.5255 17.62 64.8295 17.476C65.1415 17.324 65.4735 17.208 65.8255 17.128C66.1775 17.04 66.5615 16.996 66.9775 16.996C67.6495 16.996 68.2455 17.112 68.7655 17.344C69.2855 17.568 69.7175 17.888 70.0615 18.304C70.4135 18.712 70.6775 19.204 70.8535 19.78C71.0375 20.348 71.1295 20.976 71.1295 21.664V29.5H68.1655V21.664C68.1655 20.912 67.9935 20.332 67.6495 19.924C67.3055 19.508 66.7815 19.3 66.0775 19.3C65.5655 19.3 65.0855 19.416 64.6375 19.648C64.1895 19.88 63.7655 20.196 63.3655 20.596V29.5H60.4015V17.188H62.2135C62.5975 17.188 62.8495 17.368 62.9695 17.728L63.1735 18.7ZM81.4604 19.588C81.3804 19.716 81.2964 19.808 81.2084 19.864C81.1204 19.912 81.0084 19.936 80.8724 19.936C80.7284 19.936 80.5724 19.896 80.4044 19.816C80.2444 19.736 80.0564 19.648 79.8404 19.552C79.6244 19.448 79.3764 19.356 79.0964 19.276C78.8244 19.196 78.5004 19.156 78.1244 19.156C77.5404 19.156 77.0804 19.28 76.7444 19.528C76.4164 19.776 76.2524 20.1 76.2524 20.5C76.2524 20.764 76.3364 20.988 76.5044 21.172C76.6804 21.348 76.9084 21.504 77.1884 21.64C77.4764 21.776 77.8004 21.9 78.1604 22.012C78.5204 22.116 78.8844 22.232 79.2524 22.36C79.6284 22.488 79.9964 22.636 80.3564 22.804C80.7164 22.964 81.0364 23.172 81.3164 23.428C81.6044 23.676 81.8324 23.976 82.0004 24.328C82.1764 24.68 82.2644 25.104 82.2644 25.6C82.2644 26.192 82.1564 26.74 81.9404 27.244C81.7324 27.74 81.4204 28.172 81.0044 28.54C80.5884 28.9 80.0724 29.184 79.4564 29.392C78.8484 29.592 78.1444 29.692 77.3444 29.692C76.9204 29.692 76.5044 29.652 76.0964 29.572C75.6964 29.5 75.3084 29.396 74.9324 29.26C74.5644 29.124 74.2204 28.964 73.9004 28.78C73.5884 28.596 73.3124 28.396 73.0724 28.18L73.7564 27.052C73.8444 26.916 73.9484 26.812 74.0684 26.74C74.1884 26.668 74.3404 26.632 74.5244 26.632C74.7084 26.632 74.8804 26.684 75.0404 26.788C75.2084 26.892 75.4004 27.004 75.6164 27.124C75.8324 27.244 76.0844 27.356 76.3724 27.46C76.6684 27.564 77.0404 27.616 77.4884 27.616C77.8404 27.616 78.1404 27.576 78.3884 27.496C78.6444 27.408 78.8524 27.296 79.0124 27.16C79.1804 27.024 79.3004 26.868 79.3724 26.692C79.4524 26.508 79.4924 26.32 79.4924 26.128C79.4924 25.84 79.4044 25.604 79.2284 25.42C79.0604 25.236 78.8324 25.076 78.5444 24.94C78.2644 24.804 77.9404 24.684 77.5724 24.58C77.2124 24.468 76.8404 24.348 76.4564 24.22C76.0804 24.092 75.7084 23.944 75.3404 23.776C74.9804 23.6 74.6564 23.38 74.3684 23.116C74.0884 22.852 73.8604 22.528 73.6844 22.144C73.5164 21.76 73.4324 21.296 73.4324 20.752C73.4324 20.248 73.5324 19.768 73.7324 19.312C73.9324 18.856 74.2244 18.46 74.6084 18.124C75.0004 17.78 75.4844 17.508 76.0604 17.308C76.6444 17.1 77.3164 16.996 78.0764 16.996C78.9244 16.996 79.6964 17.136 80.3924 17.416C81.0884 17.696 81.6684 18.064 82.1324 18.52L81.4604 19.588ZM88.5993 29.692C87.5273 29.692 86.7033 29.392 86.1273 28.792C85.5593 28.184 85.2753 27.348 85.2753 26.284V19.408H84.0153C83.8553 19.408 83.7193 19.356 83.6073 19.252C83.4953 19.148 83.4393 18.992 83.4393 18.784V17.608L85.4193 17.284L86.0433 13.924C86.0833 13.764 86.1593 13.64 86.2713 13.552C86.3833 13.464 86.5273 13.42 86.7033 13.42H88.2393V17.296H91.5273V19.408H88.2393V26.08C88.2393 26.464 88.3313 26.764 88.5153 26.98C88.7073 27.196 88.9673 27.304 89.2953 27.304C89.4793 27.304 89.6313 27.284 89.7513 27.244C89.8793 27.196 89.9873 27.148 90.0753 27.1C90.1713 27.052 90.2553 27.008 90.3273 26.968C90.3993 26.92 90.4713 26.896 90.5433 26.896C90.6313 26.896 90.7033 26.92 90.7593 26.968C90.8153 27.008 90.8753 27.072 90.9393 27.16L91.8273 28.6C91.3953 28.96 90.8993 29.232 90.3393 29.416C89.7793 29.6 89.1993 29.692 88.5993 29.692ZM99.9289 24.244C99.0729 24.284 98.3529 24.36 97.7689 24.472C97.1849 24.576 96.7169 24.712 96.3649 24.88C96.0129 25.048 95.7609 25.244 95.6089 25.468C95.4569 25.692 95.3809 25.936 95.3809 26.2C95.3809 26.72 95.5329 27.092 95.8369 27.316C96.1489 27.54 96.5529 27.652 97.0489 27.652C97.6569 27.652 98.1809 27.544 98.6209 27.328C99.0689 27.104 99.5049 26.768 99.9289 26.32V24.244ZM93.1369 18.904C94.5529 17.608 96.2569 16.96 98.2489 16.96C98.9689 16.96 99.6129 17.08 100.181 17.32C100.749 17.552 101.229 17.88 101.621 18.304C102.013 18.72 102.309 19.22 102.509 19.804C102.717 20.388 102.821 21.028 102.821 21.724V29.5H101.477C101.197 29.5 100.981 29.46 100.829 29.38C100.677 29.292 100.557 29.12 100.469 28.864L100.205 27.976C99.8929 28.256 99.5889 28.504 99.2929 28.72C98.9969 28.928 98.6889 29.104 98.3689 29.248C98.0489 29.392 97.7049 29.5 97.3369 29.572C96.9769 29.652 96.5769 29.692 96.1369 29.692C95.6169 29.692 95.1369 29.624 94.6969 29.488C94.2569 29.344 93.8769 29.132 93.5569 28.852C93.2369 28.572 92.9889 28.224 92.8129 27.808C92.6369 27.392 92.5489 26.908 92.5489 26.356C92.5489 26.044 92.6009 25.736 92.7049 25.432C92.8089 25.12 92.9769 24.824 93.2089 24.544C93.4489 24.264 93.7569 24 94.1329 23.752C94.5089 23.504 94.9689 23.288 95.5129 23.104C96.0649 22.92 96.7049 22.772 97.4329 22.66C98.1609 22.54 98.9929 22.468 99.9289 22.444V21.724C99.9289 20.9 99.7529 20.292 99.4009 19.9C99.0489 19.5 98.5409 19.3 97.8769 19.3C97.3969 19.3 96.9969 19.356 96.6769 19.468C96.3649 19.58 96.0889 19.708 95.8489 19.852C95.6089 19.988 95.3889 20.112 95.1889 20.224C94.9969 20.336 94.7809 20.392 94.5409 20.392C94.3329 20.392 94.1569 20.34 94.0129 20.236C93.8689 20.124 93.7529 19.996 93.6649 19.852L93.1369 18.904ZM110.112 23.044C110.48 23.044 110.8 22.996 111.072 22.9C111.344 22.796 111.568 22.656 111.744 22.48C111.928 22.304 112.064 22.092 112.152 21.844C112.248 21.596 112.296 21.324 112.296 21.028C112.296 20.42 112.112 19.94 111.744 19.588C111.384 19.228 110.84 19.048 110.112 19.048C109.384 19.048 108.836 19.228 108.468 19.588C108.108 19.94 107.928 20.42 107.928 21.028C107.928 21.316 107.972 21.584 108.06 21.832C108.156 22.08 108.292 22.296 108.468 22.48C108.652 22.656 108.88 22.796 109.152 22.9C109.432 22.996 109.752 23.044 110.112 23.044ZM113.46 30.052C113.46 29.812 113.388 29.616 113.244 29.464C113.1 29.312 112.904 29.196 112.656 29.116C112.408 29.028 112.116 28.964 111.78 28.924C111.452 28.884 111.1 28.856 110.724 28.84C110.356 28.816 109.972 28.796 109.572 28.78C109.18 28.764 108.796 28.732 108.42 28.684C108.092 28.868 107.824 29.084 107.616 29.332C107.416 29.58 107.316 29.868 107.316 30.196C107.316 30.412 107.368 30.612 107.472 30.796C107.584 30.988 107.756 31.152 107.988 31.288C108.228 31.424 108.536 31.528 108.912 31.6C109.288 31.68 109.748 31.72 110.292 31.72C110.844 31.72 111.32 31.676 111.72 31.588C112.12 31.508 112.448 31.392 112.704 31.24C112.968 31.096 113.16 30.92 113.28 30.712C113.4 30.512 113.46 30.292 113.46 30.052ZM116.412 17.608V18.712C116.412 19.064 116.2 19.28 115.776 19.36L114.672 19.564C114.84 19.988 114.924 20.452 114.924 20.956C114.924 21.564 114.8 22.116 114.552 22.612C114.312 23.1 113.976 23.516 113.544 23.86C113.112 24.204 112.6 24.472 112.008 24.664C111.424 24.848 110.792 24.94 110.112 24.94C109.872 24.94 109.64 24.928 109.416 24.904C109.192 24.88 108.972 24.848 108.756 24.808C108.372 25.04 108.18 25.3 108.18 25.588C108.18 25.836 108.292 26.02 108.516 26.14C108.748 26.252 109.052 26.332 109.428 26.38C109.804 26.428 110.232 26.46 110.712 26.476C111.192 26.484 111.684 26.508 112.188 26.548C112.692 26.588 113.184 26.66 113.664 26.764C114.144 26.86 114.572 27.016 114.948 27.232C115.324 27.448 115.624 27.744 115.848 28.12C116.08 28.488 116.196 28.964 116.196 29.548C116.196 30.092 116.06 30.62 115.788 31.132C115.524 31.644 115.136 32.1 114.624 32.5C114.12 32.9 113.496 33.22 112.752 33.46C112.016 33.708 111.176 33.832 110.232 33.832C109.304 33.832 108.496 33.74 107.808 33.556C107.12 33.38 106.548 33.14 106.092 32.836C105.636 32.54 105.296 32.196 105.072 31.804C104.848 31.412 104.736 31.004 104.736 30.58C104.736 30.004 104.908 29.524 105.252 29.14C105.604 28.748 106.084 28.436 106.692 28.204C106.364 28.036 106.104 27.812 105.912 27.532C105.72 27.252 105.624 26.884 105.624 26.428C105.624 26.244 105.656 26.056 105.72 25.864C105.792 25.664 105.892 25.468 106.02 25.276C106.156 25.084 106.324 24.904 106.524 24.736C106.724 24.56 106.96 24.404 107.232 24.268C106.608 23.932 106.116 23.484 105.756 22.924C105.404 22.364 105.228 21.708 105.228 20.956C105.228 20.348 105.348 19.8 105.588 19.312C105.836 18.816 106.176 18.396 106.608 18.052C107.048 17.7 107.564 17.432 108.156 17.248C108.756 17.064 109.408 16.972 110.112 16.972C110.64 16.972 111.136 17.028 111.6 17.14C112.064 17.244 112.488 17.4 112.872 17.608H116.412ZM121.088 19.324C121.472 18.588 121.928 18.012 122.456 17.596C122.984 17.172 123.608 16.96 124.328 16.96C124.896 16.96 125.352 17.084 125.696 17.332L125.504 19.552C125.464 19.696 125.404 19.8 125.324 19.864C125.252 19.92 125.152 19.948 125.024 19.948C124.904 19.948 124.724 19.928 124.484 19.888C124.252 19.848 124.024 19.828 123.8 19.828C123.472 19.828 123.18 19.876 122.924 19.972C122.668 20.068 122.436 20.208 122.228 20.392C122.028 20.568 121.848 20.784 121.688 21.04C121.536 21.296 121.392 21.588 121.256 21.916V29.5H118.292V17.188H120.032C120.336 17.188 120.548 17.244 120.668 17.356C120.788 17.46 120.868 17.652 120.908 17.932L121.088 19.324ZM133.585 24.244C132.729 24.284 132.009 24.36 131.425 24.472C130.841 24.576 130.373 24.712 130.021 24.88C129.669 25.048 129.417 25.244 129.265 25.468C129.113 25.692 129.037 25.936 129.037 26.2C129.037 26.72 129.189 27.092 129.493 27.316C129.805 27.54 130.209 27.652 130.705 27.652C131.313 27.652 131.837 27.544 132.277 27.328C132.725 27.104 133.161 26.768 133.585 26.32V24.244ZM126.793 18.904C128.209 17.608 129.913 16.96 131.905 16.96C132.625 16.96 133.269 17.08 133.837 17.32C134.405 17.552 134.885 17.88 135.277 18.304C135.669 18.72 135.965 19.22 136.165 19.804C136.373 20.388 136.477 21.028 136.477 21.724V29.5H135.133C134.853 29.5 134.637 29.46 134.485 29.38C134.333 29.292 134.213 29.12 134.125 28.864L133.861 27.976C133.549 28.256 133.245 28.504 132.949 28.72C132.653 28.928 132.345 29.104 132.025 29.248C131.705 29.392 131.361 29.5 130.993 29.572C130.633 29.652 130.233 29.692 129.793 29.692C129.273 29.692 128.793 29.624 128.353 29.488C127.913 29.344 127.533 29.132 127.213 28.852C126.893 28.572 126.645 28.224 126.469 27.808C126.293 27.392 126.205 26.908 126.205 26.356C126.205 26.044 126.257 25.736 126.361 25.432C126.465 25.12 126.633 24.824 126.865 24.544C127.105 24.264 127.413 24 127.789 23.752C128.165 23.504 128.625 23.288 129.169 23.104C129.721 22.92 130.361 22.772 131.089 22.66C131.817 22.54 132.649 22.468 133.585 22.444V21.724C133.585 20.9 133.409 20.292 133.057 19.9C132.705 19.5 132.197 19.3 131.533 19.3C131.053 19.3 130.653 19.356 130.333 19.468C130.021 19.58 129.745 19.708 129.505 19.852C129.265 19.988 129.045 20.112 128.845 20.224C128.653 20.336 128.437 20.392 128.197 20.392C127.989 20.392 127.813 20.34 127.669 20.236C127.525 20.124 127.409 19.996 127.321 19.852L126.793 18.904ZM139.269 29.5V17.188H141.081C141.465 17.188 141.717 17.368 141.837 17.728L142.029 18.64C142.245 18.4 142.469 18.18 142.701 17.98C142.941 17.78 143.193 17.608 143.457 17.464C143.729 17.32 144.017 17.208 144.321 17.128C144.633 17.04 144.973 16.996 145.341 16.996C146.117 16.996 146.753 17.208 147.249 17.632C147.753 18.048 148.129 18.604 148.377 19.3C148.569 18.892 148.809 18.544 149.097 18.256C149.385 17.96 149.701 17.72 150.045 17.536C150.389 17.352 150.753 17.216 151.137 17.128C151.529 17.04 151.921 16.996 152.313 16.996C152.993 16.996 153.597 17.1 154.125 17.308C154.653 17.516 155.097 17.82 155.457 18.22C155.817 18.62 156.089 19.108 156.273 19.684C156.465 20.26 156.561 20.92 156.561 21.664V29.5H153.597V21.664C153.597 20.88 153.425 20.292 153.081 19.9C152.737 19.5 152.233 19.3 151.569 19.3C151.265 19.3 150.981 19.352 150.717 19.456C150.461 19.56 150.233 19.712 150.033 19.912C149.841 20.104 149.689 20.348 149.577 20.644C149.465 20.94 149.409 21.28 149.409 21.664V29.5H146.433V21.664C146.433 20.84 146.265 20.24 145.929 19.864C145.601 19.488 145.117 19.3 144.477 19.3C144.045 19.3 143.641 19.408 143.265 19.624C142.897 19.832 142.553 20.12 142.233 20.488V29.5H139.269Z" fill="url(#paint1_linear_7_266)"/>
<defs>
<linearGradient id="paint0_linear_7_266" x1="5.85789" y1="5.85789" x2="34.1421" y2="34.1421" gradientUnits="userSpaceOnUse">
<stop stop-color="#FAE100"/>
<stop offset="0.15" stop-color="#FCB720"/>
<stop offset="0.3" stop-color="#FF7950"/>
<stop offset="0.5" stop-color="#FF1C74"/>
<stop offset="1" stop-color="#6C1CD1"/>
</linearGradient>
<linearGradient id="paint1_linear_7_266" x1="67.5234" y1="9.74697" x2="77.9624" y2="47.9031" gradientUnits="userSpaceOnUse">
<stop stop-color="#FAE100"/>
<stop offset="0.15" stop-color="#FCB720"/>
<stop offset="0.3" stop-color="#FF7950"/>
<stop offset="0.5" stop-color="#FF1C74"/>
<stop offset="1" stop-color="#6C1CD1"/>
</linearGradient>
<clipPath id="clip0_7_266">
<rect width="40" height="40" fill="white"/>
</clipPath>
</defs>
</svg>
