<svg width="140" height="34" viewBox="0 0 140 34" fill="none" xmlns="http://www.w3.org/2000/svg">
<g clip-path="url(#clip0_1_42)">
<path d="M11.6779 24.4178L17.8386 8.92889H23.4477L29.5165 24.4178H23.8155L22.988 22.14H18.0226L17.2869 24.4178H11.6779ZM19.2179 18.1311H21.7926L20.5053 14.3044L19.2179 18.1311ZM30.6199 24.4178V8.92889H35.8612V14.2133H40.1829V8.92889H45.4242V24.4178H40.1829V18.4956H35.8612V24.4178H30.6199ZM48.2747 24.4178V8.92889H53.424V14.6689L57.5618 8.92889H63.7226L57.9296 16.0356L64.0904 24.4178H57.6538L53.424 18.2222V24.4178H48.2747ZM65.1019 24.4178V8.92889H75.8602V13.3022H70.0673V14.5778H75.4924V18.5867H70.0673V20.0444H76.2281V24.4178H65.1019Z" fill="black"/>
<path d="M78.4349 24.4178V8.92888H90.3886V13.0289H83.4922V14.3956H85.5152C86.3427 14.3956 87.0784 14.4867 87.814 14.6689C88.5496 14.8511 89.1013 15.1244 89.745 15.4889C90.2967 15.8533 90.7564 16.4 91.1242 17.0378C91.4921 17.6756 91.6759 18.4955 91.6759 19.4067C91.6759 20.5911 91.4001 21.5022 90.7564 22.3222C90.1128 23.1422 89.3772 23.6889 88.5496 23.9622C87.6301 24.3267 86.7106 24.4178 85.6071 24.4178H78.4349ZM83.4922 20.4089H84.8715C85.2393 20.4089 85.6071 20.3178 85.883 20.1355C86.1588 19.9533 86.2508 19.68 86.2508 19.3156C86.2508 18.5867 85.791 18.2222 84.8715 18.2222H83.4922V20.4089ZM93.515 24.4178V8.92888H98.4804V17.22H98.5723L103.17 8.92888H108.595V24.4178H103.63V16.5822H103.538L99.1241 24.4178H93.515ZM125.79 22.5044C124.135 24.0533 122.112 24.7822 119.537 24.7822C117.055 24.7822 114.94 24.0533 113.285 22.5044C111.63 20.9556 110.802 18.9511 110.802 16.4911C110.802 14.0311 111.63 12.1178 113.285 10.66C114.94 9.20222 116.963 8.47333 119.537 8.47333C122.02 8.47333 124.135 9.20222 125.79 10.66C127.445 12.1178 128.273 14.1222 128.273 16.4911C128.273 19.0422 127.445 21.0467 125.79 22.5044ZM119.537 20.0444C120.457 20.0444 121.192 19.68 121.744 19.0422C122.296 18.4044 122.664 17.5844 122.664 16.5822C122.664 15.58 122.388 14.76 121.836 14.2133C121.284 13.6667 120.549 13.3022 119.629 13.3022C118.71 13.3022 117.974 13.5756 117.422 14.2133C116.871 14.8511 116.595 15.6711 116.595 16.5822C116.595 17.5844 116.871 18.4044 117.422 19.0422C117.882 19.68 118.618 20.0444 119.537 20.0444Z" fill="#FF6518"/>
<path d="M81.5613 0H123.123C132.411 0 139.951 7.47111 139.951 16.6733C139.951 25.8756 132.411 33.3467 123.123 33.3467H62.1594L63.7226 30.7044H123.123C130.847 30.7044 137.192 24.4178 137.192 16.7644C137.192 9.11111 130.847 2.82444 123.123 2.82444H79.9981L81.5613 0Z" fill="#FF6518"/>
<path d="M16.8272 0H77.7912L76.2281 2.64222H16.8272C9.10323 2.64222 2.6666 9.02 2.6666 16.6733C2.6666 24.3267 9.01128 30.6133 16.7352 30.6133H59.8606L58.2975 33.2556H16.8272C7.54005 33.3467 0 25.8756 0 16.6733C0 7.47111 7.54005 0 16.8272 0Z" fill="black"/>
</g>
<defs>
<clipPath id="clip0_1_42">
<rect width="140" height="34" fill="white"/>
</clipPath>
</defs>
</svg>
